# Blender v2.93.5 OBJ File: 'bird.blend'
# www.blender.org
o Cube
v -0.750039 0.042564 2.644948
v -0.750039 -0.042564 2.644948
v 0.750039 0.042564 2.644948
v 0.750039 -0.042564 2.644948
v 0.241579 -0.241580 -1.293052
v 0.241579 0.162784 -1.293052
v -0.241580 0.162784 -1.293052
v -0.241580 -0.241580 -1.293052
v -0.241580 0.154261 -1.293052
v -0.082935 -0.040496 -1.719269
v -0.082935 -0.206366 -1.719269
v -0.241580 -0.241580 -1.293052
v 0.082935 -0.040496 -1.719269
v 0.241579 0.154261 -1.293052
v 0.241579 -0.239177 -1.293052
v 0.082935 -0.206366 -1.719269
v 0.241580 -0.241580 1.437466
v -0.270715 0.270715 1.437467
v 0.299850 0.270715 1.437466
v -0.270715 -0.299850 1.437467
v 0.380214 -0.380214 -0.554446
v -0.380214 0.380214 -0.554446
v 0.380214 0.380214 -0.554447
v -0.380214 -0.380214 -0.554447
v 0.241579 -0.241580 -0.923749
v -0.241580 0.241580 -0.923749
v 0.241579 0.241580 -0.923749
v -0.241580 -0.241580 -0.923749
vt 0.875000 0.702416
vt 0.625000 0.750000
vt 0.625000 0.702416
vt 0.625000 0.750000
vt 0.625000 1.000000
vt 0.625000 1.000000
vt 0.625000 0.190338
vt 0.375000 0.250000
vt 0.375000 0.190338
vt 0.375000 0.702416
vt 0.125000 0.750000
vt 0.125000 0.702416
vt 0.375000 0.750000
vt 0.625000 0.250000
vt 0.375000 0.500000
vt 0.542913 0.832087
vt 0.457087 0.917913
vt 0.457087 0.832087
vt 0.375000 0.750000
vt 0.375000 1.000000
vt 0.375000 1.000000
vt 0.542913 0.917913
vt 0.625000 0.559662
vt 0.375000 0.559662
vt 0.125000 0.559662
vt 0.125000 0.500000
vt 0.625000 0.095169
vt 0.375000 0.095169
vt 0.875000 0.500000
vt 0.625000 0.500000
vt 0.625000 0.047584
vt 0.375000 0.047584
vt 0.375000 0.654831
vt 0.125000 0.654831
vt 0.875000 0.654831
vt 0.625000 0.654831
vt 0.625000 0.000000
vt 0.375000 0.000000
vt 0.875000 0.750000
vt 0.875000 0.559662
vn 0.0000 0.9780 -0.2087
vn 0.0000 0.0000 -1.0000
vn 0.9226 -0.1049 -0.3712
vn 0.0000 -1.0000 -0.0000
vn -1.0000 0.0000 0.0000
vn 0.0000 0.0000 1.0000
vn 0.9372 0.0000 -0.3488
vn -0.9372 0.0000 -0.3488
vn 0.0000 0.9095 -0.4156
vn 0.0050 -0.9969 -0.0786
vn -0.9294 0.0000 -0.3690
vn 0.0000 -0.9867 0.1626
vn 0.9976 0.0000 0.0694
vn 0.0000 0.9826 0.1857
vn 0.9362 0.0000 -0.3514
vn -0.9985 0.0000 0.0549
vn -0.0000 -0.9976 0.0694
vn 0.0000 0.9985 0.0549
vn 1.0000 0.0000 -0.0000
vn -0.9362 0.0000 -0.3514
vn 0.0000 -0.9362 -0.3514
vn -0.0000 0.9362 -0.3514
vn 0.9370 0.0000 -0.3493
vn 0.0000 -0.9966 -0.0823
vn 0.1095 -0.9624 0.2485
vn 0.9930 -0.1130 0.0339
vn 0.1130 -0.9930 0.0339
s off
f 27/1/1 7/2/1 26/3/1
f 9/4/2 6/5/2 14/6/2
f 19/7/3 4/8/3 17/9/3
f 28/10/4 5/11/4 25/12/4
f 28/10/5 7/2/5 8/13/5
f 3/14/6 2/15/6 4/8/6
f 10/16/2 16/17/2 11/18/2
f 12/19/6 5/20/6 8/13/6
f 15/21/6 6/5/6 5/20/6
f 13/22/7 15/21/7 16/17/7
f 10/16/8 12/19/8 9/4/8
f 14/6/9 10/16/9 9/4/9
f 12/19/10 16/17/10 15/21/10
f 9/4/6 8/13/6 7/2/6
f 2/15/11 18/23/11 20/24/11
f 2/15/12 17/25/12 4/26/12
f 23/27/13 17/9/13 21/28/13
f 3/29/14 18/23/14 1/30/14
f 27/31/15 21/28/15 25/32/15
f 18/23/16 24/33/16 20/24/16
f 17/25/17 24/33/17 21/34/17
f 18/23/18 23/35/18 22/36/18
f 6/37/19 25/32/19 5/38/19
f 22/36/20 28/10/20 24/33/20
f 24/33/21 25/12/21 21/34/21
f 23/35/22 26/3/22 22/36/22
f 27/1/1 6/39/1 7/2/1
f 9/4/2 7/2/2 6/5/2
f 19/7/23 3/14/23 4/8/23
f 28/10/4 8/13/4 5/11/4
f 28/10/5 26/3/5 7/2/5
f 3/14/6 1/30/6 2/15/6
f 10/16/2 13/22/2 16/17/2
f 12/19/2 15/21/2 5/20/2
f 15/21/19 14/6/19 6/5/19
f 13/22/7 14/6/7 15/21/7
f 10/16/8 11/18/8 12/19/8
f 14/6/9 13/22/9 10/16/9
f 12/19/24 11/18/24 16/17/24
f 9/4/6 12/19/6 8/13/6
f 2/15/11 1/30/11 18/23/11
f 2/15/25 20/24/25 17/25/25
f 23/27/26 19/7/26 17/9/26
f 3/29/14 19/40/14 18/23/14
f 27/31/15 23/27/15 21/28/15
f 18/23/16 22/36/16 24/33/16
f 17/25/27 20/24/27 24/33/27
f 18/23/18 19/40/18 23/35/18
f 6/37/19 27/31/19 25/32/19
f 22/36/20 26/3/20 28/10/20
f 24/33/21 28/10/21 25/12/21
f 23/35/22 27/1/22 26/3/22
o Cube.001
v -0.000000 0.036276 -0.831013
v -0.000000 -0.036276 -0.831013
v 0.000000 0.036276 1.168987
v 0.000000 -0.036276 1.168987
v -3.731569 0.027041 -0.199362
v -3.731569 -0.027041 -0.199362
v -1.542656 0.027041 0.586877
v -1.542656 -0.027041 0.586877
v -1.319288 -0.036276 0.708998
v -1.319288 0.036276 0.708998
v -4.136070 0.036276 -1.506970
v -4.136070 -0.036276 -1.506970
v -0.659644 0.036276 0.938993
v -0.659644 -0.036276 0.938993
v -1.835773 0.036276 -0.821361
v -1.835773 -0.036276 -0.821361
vt 0.625000 0.000000
vt 0.375000 0.000000
vt 0.375000 0.250000
vt 0.625000 0.375000
vt 0.375000 0.375000
vt 0.375000 0.500000
vt 0.406822 0.519825
vt 0.406822 0.730175
vt 0.593178 0.730175
vt 0.625000 0.875000
vt 0.375000 0.875000
vt 0.375000 1.000000
vt 0.250000 0.500000
vt 0.250000 0.750000
vt 0.750000 0.500000
vt 0.750000 0.750000
vt 0.875000 0.750000
vt 0.593178 0.519825
vt 0.625000 0.500000
vt 0.375000 0.750000
vt 0.625000 0.750000
vt 0.125000 0.500000
vt 0.125000 0.750000
vt 0.625000 0.250000
vt 0.625000 1.000000
vt 0.875000 0.500000
vn 1.0000 0.0000 -0.0000
vn -0.3292 0.0000 0.9443
vn -0.3380 0.0000 0.9411
vn -0.0053 0.0000 -1.0000
vn 0.0000 1.0000 0.0000
vn 0.0000 -1.0000 0.0000
vn -0.4797 0.0000 0.8774
vn -0.1324 0.9768 0.1683
vn -0.0029 -1.0000 0.0079
vn -0.9553 0.0000 0.2955
vn 0.2856 0.0000 -0.9583
vn -0.0029 1.0000 0.0079
vn -0.1324 -0.9768 0.1683
s off
f 30/41/28 29/42/28 31/43/28
f 42/44/29 41/45/29 38/46/29
f 35/47/30 33/48/30 34/49/30
f 44/50/31 43/51/31 29/52/31
f 38/46/32 41/53/32 43/54/32
f 42/55/33 44/56/33 30/57/33
f 36/58/34 37/59/34 38/46/34
f 35/47/35 38/46/35 39/60/35
f 36/58/36 34/49/36 40/61/36
f 34/49/37 33/48/37 39/60/37
f 37/59/33 40/61/33 44/56/33
f 41/53/32 31/62/32 29/63/32
f 40/61/38 39/60/38 43/51/38
f 32/64/29 31/43/29 41/45/29
f 30/41/28 31/43/28 32/64/28
f 42/44/29 38/46/29 37/59/29
f 35/47/30 34/49/30 36/58/30
f 44/50/31 29/52/31 30/65/31
f 38/46/32 43/54/32 39/60/32
f 42/55/33 30/57/33 32/66/33
f 36/58/34 38/46/34 35/47/34
f 35/47/39 39/60/39 33/48/39
f 36/58/40 40/61/40 37/59/40
f 34/49/37 39/60/37 40/61/37
f 37/59/33 44/56/33 42/55/33
f 41/53/32 29/63/32 43/54/32
f 40/61/38 43/51/38 44/50/38
f 32/64/29 41/45/29 42/44/29
o Cube.002_Cube.004
v -0.000000 0.036276 -0.831013
v -0.000000 -0.036276 -0.831013
v 0.000000 0.036276 1.168987
v 0.000000 -0.036276 1.168987
v 3.731569 0.027041 -0.199363
v 3.731569 -0.027041 -0.199363
v 1.542656 0.027041 0.586876
v 1.542656 -0.027041 0.586876
v 1.319288 -0.036276 0.708998
v 1.319288 0.036276 0.708998
v 4.136070 0.036276 -1.506971
v 4.136070 -0.036276 -1.506971
v 0.659644 0.036276 0.938992
v 0.659644 -0.036276 0.938992
v 1.835773 0.036276 -0.821361
v 1.835773 -0.036276 -0.821361
vt 0.625000 0.000000
vt 0.375000 0.250000
vt 0.375000 0.000000
vt 0.625000 0.375000
vt 0.375000 0.500000
vt 0.375000 0.375000
vt 0.406822 0.519825
vt 0.593178 0.730175
vt 0.406822 0.730175
vt 0.625000 0.875000
vt 0.375000 1.000000
vt 0.375000 0.875000
vt 0.250000 0.750000
vt 0.250000 0.500000
vt 0.750000 0.500000
vt 0.875000 0.750000
vt 0.750000 0.750000
vt 0.593178 0.519825
vt 0.625000 0.500000
vt 0.375000 0.750000
vt 0.625000 0.750000
vt 0.125000 0.750000
vt 0.125000 0.500000
vt 0.625000 0.250000
vt 0.625000 1.000000
vt 0.875000 0.500000
vn -1.0000 0.0000 0.0000
vn 0.3292 -0.0000 0.9443
vn 0.3380 0.0000 0.9411
vn 0.0053 0.0000 -1.0000
vn 0.0000 1.0000 0.0000
vn 0.0000 -1.0000 0.0000
vn 0.4797 0.0000 0.8774
vn 0.1324 0.9768 0.1683
vn 0.0029 -1.0000 0.0079
vn 0.9553 0.0000 0.2955
vn -0.2856 0.0000 -0.9583
vn 0.0029 1.0000 0.0079
vn 0.1324 -0.9768 0.1683
s off
f 46/67/41 47/68/41 45/69/41
f 58/70/42 54/71/42 57/72/42
f 51/73/43 50/74/43 49/75/43
f 60/76/44 45/77/44 59/78/44
f 54/71/45 59/79/45 57/80/45
f 58/81/46 46/82/46 60/83/46
f 52/84/47 54/71/47 53/85/47
f 51/73/48 55/86/48 54/71/48
f 52/84/49 56/87/49 50/74/49
f 50/74/50 55/86/50 49/75/50
f 53/85/46 60/83/46 56/87/46
f 57/80/45 45/88/45 47/89/45
f 56/87/51 59/78/51 55/86/51
f 48/90/42 57/72/42 47/68/42
f 46/67/41 48/90/41 47/68/41
f 58/70/42 53/85/42 54/71/42
f 51/73/43 52/84/43 50/74/43
f 60/76/44 46/91/44 45/77/44
f 54/71/45 55/86/45 59/79/45
f 58/81/46 48/92/46 46/82/46
f 52/84/47 51/73/47 54/71/47
f 51/73/52 49/75/52 55/86/52
f 52/84/53 53/85/53 56/87/53
f 50/74/50 56/87/50 55/86/50
f 53/85/46 58/81/46 60/83/46
f 57/80/45 59/79/45 45/88/45
f 56/87/51 60/76/51 59/78/51
f 48/90/42 58/70/42 57/72/42
