# Blender v2.93.5 OBJ File: ''
# www.blender.org
o Bush_8_Cube.008
v -0.018733 -0.100504 0.033209
v 0.426517 0.054984 0.011448
v 0.107580 0.246203 0.372271
v -0.339649 0.262229 0.275462
v -0.348082 0.151279 -0.218739
v 0.104847 0.063418 -0.357191
v 0.300037 0.687245 0.199659
v -0.110074 0.837798 0.392704
v -0.413247 0.802116 -0.011170
v -0.124497 0.643585 -0.399087
v 0.337242 0.608365 -0.265520
v 0.024560 1.036647 -0.041172
v 0.058715 -0.052591 0.265300
v 0.190868 -0.067235 0.025465
v 0.295916 0.112383 0.247433
v 0.283464 0.017062 -0.208319
v 0.044600 -0.105822 -0.200003
v -0.215346 -0.045054 0.184307
v -0.111818 0.232865 0.367831
v -0.206800 -0.077545 -0.105395
v -0.399634 0.172335 0.028880
v -0.140604 0.032287 -0.355650
v 0.419502 0.338864 -0.141521
v 0.248068 0.310560 -0.363260
v 0.229786 0.473286 0.308302
v 0.409552 0.401077 0.133450
v -0.254584 0.564019 0.376904
v 0.010211 0.543096 0.441415
v -0.400891 0.474551 -0.128319
v -0.406241 0.537590 0.141111
v -0.005971 0.332507 -0.441726
v -0.251040 0.402584 -0.341837
v 0.417827 0.713128 -0.025345
v 0.146178 0.852260 0.372890
v -0.262025 0.829061 0.192482
v -0.269325 0.731950 -0.218664
v 0.115152 0.644859 -0.368027
v 0.187592 0.898711 0.094843
v 0.238896 0.965601 -0.199383
v -0.041314 0.984375 0.182161
v -0.227636 1.039636 -0.024318
v -0.049606 0.875356 -0.232876
v -0.316609 0.813366 -0.077954
v -0.335727 0.818695 -0.061249
v -0.337353 0.798627 -0.082998
v -0.315392 0.804070 -0.102142
v -0.300195 0.827503 -0.092225
v -0.312763 0.836542 -0.066952
v -0.354106 0.820842 -0.084479
v -0.343405 0.813146 -0.105996
v -0.319507 0.830321 -0.113577
v -0.317882 0.850389 -0.091828
v -0.339842 0.844946 -0.072684
v -0.338625 0.835650 -0.096872
v -0.375725 0.291003 -0.076193
v -0.381404 0.296508 -0.051487
v -0.383397 0.269588 -0.063723
v -0.383211 0.272879 -0.093177
v -0.381103 0.301833 -0.099144
v -0.379986 0.316437 -0.073378
v -0.406928 0.281758 -0.055089
v -0.407878 0.269325 -0.077026
v -0.406544 0.288168 -0.100832
v -0.404551 0.315089 -0.088596
v -0.404737 0.311798 -0.059141
v -0.412223 0.293674 -0.076125
v -0.084584 0.294911 0.370469
v -0.067047 0.277154 0.377550
v -0.095426 0.271357 0.371270
v -0.110397 0.296922 0.372096
v -0.091270 0.318520 0.378886
v -0.064479 0.306303 0.382257
v -0.086713 0.267064 0.397386
v -0.109522 0.277466 0.394516
v -0.108944 0.307522 0.398972
v -0.080566 0.313320 0.405252
v -0.065595 0.287754 0.404427
v -0.091407 0.289766 0.406053
v 0.084480 0.971349 0.050359
v 0.104056 0.954493 0.047988
v 0.076920 0.947660 0.057751
v 0.063232 0.972881 0.065164
v 0.081911 0.995302 0.059982
v 0.107141 0.983937 0.049367
v 0.098180 0.945281 0.075603
v 0.076700 0.954957 0.084641
v 0.077909 0.985246 0.086809
v 0.105046 0.992079 0.077046
v 0.118733 0.966858 0.069633
v 0.097486 0.968390 0.084437
v 0.422321 0.498157 -0.150157
v 0.422409 0.472230 -0.149282
v 0.413972 0.488352 -0.172676
v 0.409007 0.516058 -0.163395
v 0.414376 0.517059 -0.134265
v 0.422659 0.489971 -0.125543
v 0.394702 0.472749 -0.159963
v 0.387650 0.495811 -0.167389
v 0.387285 0.515565 -0.144298
v 0.395722 0.499443 -0.120903
v 0.400687 0.471737 -0.130184
v 0.387373 0.489638 -0.143423
v 0.124310 0.496197 -0.407089
v 0.132631 0.472412 -0.400926
v 0.105025 0.479008 -0.409457
v 0.101365 0.508298 -0.406785
v 0.126709 0.519803 -0.396602
v 0.146033 0.497624 -0.392982
v 0.108756 0.469640 -0.383482
v 0.092304 0.488523 -0.386565
v 0.104270 0.515383 -0.378890
v 0.131876 0.508787 -0.370359
v 0.135536 0.479497 -0.373031
v 0.112592 0.491598 -0.372727
vt 0.632147 0.906985
vt 0.632594 0.906361
vt 0.632949 0.907371
vt 0.633047 0.905701
vt 0.632233 0.905520
vt 0.632085 0.907992
vt 0.631396 0.907176
vt 0.631737 0.906269
vt 0.632743 0.905180
vt 0.633278 0.907426
vt 0.633416 0.906577
vt 0.633401 0.906897
vt 0.632061 0.908524
vt 0.632816 0.908092
vt 0.632545 0.908524
vt 0.629105 0.908525
vt 0.629105 0.909395
vt 0.629067 0.908845
vt 0.631450 0.905601
vt 0.630870 0.906329
vt 0.630970 0.905646
vt 0.633425 0.905906
vt 0.633261 0.907835
vt 0.634892 0.905111
vt 0.634408 0.905111
vt 0.635326 0.904862
vt 0.636078 0.903862
vt 0.635938 0.904173
vt 0.636223 0.903261
vt 0.631780 0.905120
vt 0.633625 0.902983
vt 0.633902 0.902058
vt 0.634127 0.903036
vt 0.634041 0.904631
vt 0.633488 0.903853
vt 0.634374 0.903924
vt 0.635692 0.904480
vt 0.634877 0.904628
vt 0.635311 0.903899
vt 0.636033 0.902723
vt 0.635937 0.903577
vt 0.635433 0.902908
vt 0.634699 0.901838
vt 0.635428 0.902128
vt 0.634720 0.902198
vt 0.634795 0.903166
vt 0.635173 0.901707
vt 0.635983 0.902233
vt 0.633692 0.904422
vt 0.633465 0.907266
vt 0.629526 0.908920
vt 0.629563 0.908525
vt 0.629563 0.909222
vt 0.633528 0.902493
vt 0.628380 0.908525
vt 0.628380 0.909593
vt 0.628339 0.909135
vt 0.634210 0.901767
vt 0.630730 0.906674
vt 0.630875 0.907275
vt 0.629035 0.908525
vt 0.629035 0.909504
vt 0.628998 0.908938
vt 0.628208 0.909510
vt 0.628091 0.908942
vt 0.628208 0.908525
vt 0.628685 0.908525
vt 0.628685 0.909500
vt 0.628646 0.908953
vt 0.633552 0.903484
vt 0.629398 0.909259
vt 0.629360 0.909010
vt 0.629398 0.908525
vt 0.631286 0.908079
vt 0.502404 0.737440
vt 0.502026 0.740422
vt 0.500425 0.738669
vt 0.504616 0.739283
vt 0.496543 0.746520
vt 0.496234 0.744086
vt 0.498658 0.745590
vt 0.498966 0.741651
vt 0.501081 0.742581
vt 0.498658 0.744085
vt 0.504616 0.736826
vt 0.504005 0.741651
vt 0.503813 0.741651
vt 0.505928 0.742581
vt 0.503505 0.744086
vt 0.498658 0.742581
vt 0.501081 0.745590
vt 0.503505 0.745590
vt 0.501390 0.746520
vt 0.501081 0.744085
vt 0.505928 0.745590
vt 0.496543 0.741651
vt 0.499814 0.736826
vt 0.500425 0.739194
vt 0.497835 0.738055
vt 0.498966 0.746520
vt 0.503505 0.742581
vt 0.503813 0.746520
vt 0.500425 0.741651
vt 0.498213 0.741037
vt 0.496234 0.739808
vt 0.501390 0.741651
vt 0.502404 0.737440
vt 0.502026 0.740422
vt 0.500425 0.738669
vt 0.504616 0.739283
vt 0.496543 0.746520
vt 0.496234 0.744086
vt 0.498658 0.745590
vt 0.498966 0.741651
vt 0.501081 0.742581
vt 0.498658 0.744085
vt 0.504616 0.736826
vt 0.504005 0.741651
vt 0.503813 0.741651
vt 0.505928 0.742581
vt 0.503505 0.744086
vt 0.498658 0.742581
vt 0.501081 0.745590
vt 0.503505 0.745590
vt 0.501390 0.746520
vt 0.501081 0.744085
vt 0.505928 0.745590
vt 0.496543 0.741651
vt 0.499814 0.736826
vt 0.500425 0.739194
vt 0.497835 0.738055
vt 0.498966 0.746520
vt 0.503505 0.742581
vt 0.503813 0.746520
vt 0.500425 0.741651
vt 0.498213 0.741037
vt 0.496234 0.739808
vt 0.501390 0.741651
vt 0.502404 0.737440
vt 0.502026 0.740422
vt 0.500425 0.738669
vt 0.504616 0.739283
vt 0.496543 0.746520
vt 0.496234 0.744086
vt 0.498658 0.745590
vt 0.498966 0.741651
vt 0.501081 0.742581
vt 0.498658 0.744085
vt 0.504616 0.736826
vt 0.504005 0.741651
vt 0.503813 0.741651
vt 0.505928 0.742581
vt 0.503505 0.744086
vt 0.498658 0.742581
vt 0.501081 0.745590
vt 0.503505 0.745590
vt 0.501390 0.746520
vt 0.501081 0.744085
vt 0.505928 0.745590
vt 0.496543 0.741651
vt 0.499814 0.736826
vt 0.500425 0.739194
vt 0.497835 0.738055
vt 0.498966 0.746520
vt 0.503505 0.742581
vt 0.503813 0.746520
vt 0.500425 0.741651
vt 0.498213 0.741037
vt 0.496234 0.739808
vt 0.501390 0.741651
vt 0.502404 0.737440
vt 0.502026 0.740422
vt 0.500425 0.738669
vt 0.504616 0.739283
vt 0.496543 0.746520
vt 0.496234 0.744086
vt 0.498658 0.745590
vt 0.498966 0.741651
vt 0.501081 0.742581
vt 0.498658 0.744085
vt 0.504616 0.736826
vt 0.504005 0.741651
vt 0.503813 0.741651
vt 0.505928 0.742581
vt 0.503505 0.744086
vt 0.498658 0.742581
vt 0.501081 0.745590
vt 0.503505 0.745590
vt 0.501390 0.746520
vt 0.501081 0.744085
vt 0.505928 0.745590
vt 0.496543 0.741651
vt 0.499814 0.736826
vt 0.500425 0.739194
vt 0.497835 0.738055
vt 0.498966 0.746520
vt 0.503505 0.742581
vt 0.503813 0.746520
vt 0.500425 0.741651
vt 0.498213 0.741037
vt 0.496234 0.739808
vt 0.501390 0.741651
vt 0.502404 0.737440
vt 0.502026 0.740422
vt 0.500425 0.738669
vt 0.504616 0.739283
vt 0.496543 0.746520
vt 0.496234 0.744086
vt 0.498658 0.745590
vt 0.498966 0.741651
vt 0.501081 0.742581
vt 0.498658 0.744085
vt 0.504616 0.736826
vt 0.504005 0.741651
vt 0.503813 0.741651
vt 0.505928 0.742581
vt 0.503505 0.744086
vt 0.498658 0.742581
vt 0.501081 0.745590
vt 0.503505 0.745590
vt 0.501390 0.746520
vt 0.501081 0.744085
vt 0.505928 0.745590
vt 0.496543 0.741651
vt 0.499814 0.736826
vt 0.500425 0.739194
vt 0.497835 0.738055
vt 0.498966 0.746520
vt 0.503505 0.742581
vt 0.503813 0.746520
vt 0.500425 0.741651
vt 0.498213 0.741037
vt 0.496234 0.739808
vt 0.501390 0.741651
vt 0.502404 0.737440
vt 0.502026 0.740422
vt 0.500425 0.738669
vt 0.504616 0.739283
vt 0.496543 0.746520
vt 0.496234 0.744086
vt 0.498658 0.745590
vt 0.498966 0.741651
vt 0.501081 0.742581
vt 0.498658 0.744085
vt 0.504616 0.736826
vt 0.504005 0.741651
vt 0.503813 0.741651
vt 0.505928 0.742581
vt 0.503505 0.744086
vt 0.498658 0.742581
vt 0.501081 0.745590
vt 0.503505 0.745590
vt 0.501390 0.746520
vt 0.501081 0.744085
vt 0.505928 0.745590
vt 0.496543 0.741651
vt 0.499814 0.736826
vt 0.500425 0.739194
vt 0.497835 0.738055
vt 0.498966 0.746520
vt 0.503505 0.742581
vt 0.503813 0.746520
vt 0.500425 0.741651
vt 0.498213 0.741037
vt 0.496234 0.739808
vt 0.501390 0.741651
vn 0.1604 -0.9759 0.1480
vn 0.4493 -0.8823 -0.1402
vn 0.4492 -0.8824 -0.1403
vn -0.0951 -0.9682 0.2316
vn -0.1954 -0.9752 0.1036
vn -0.1150 -0.9933 -0.0086
vn 0.8309 -0.2479 -0.4981
vn 0.5290 -0.0460 0.8474
vn -0.3899 -0.1928 0.9005
vn -0.9753 -0.1050 -0.1941
vn 0.0305 -0.2881 -0.9571
vn 0.9989 0.0394 0.0272
vn 0.5105 -0.0327 0.8593
vn 0.5104 -0.0332 0.8593
vn 0.5104 -0.0330 0.8593
vn -0.8426 0.0575 0.5355
vn -0.8135 0.0296 -0.5809
vn 0.2757 -0.1829 -0.9437
vn 0.6920 0.5806 0.4290
vn -0.0022 0.8210 0.5709
vn -0.6951 0.5676 0.4411
vn -0.4422 0.6127 -0.6550
vn 0.4398 0.2791 -0.8536
vn -0.1770 0.7858 -0.5926
vn -0.0482 0.4794 -0.8763
vn 0.1038 0.5573 -0.8238
vn -0.0334 0.7711 -0.6359
vn -0.3936 0.5285 -0.7522
vn -0.6433 0.4692 -0.6049
vn 0.0272 0.9715 0.2354
vn -0.4482 0.6757 0.5853
vn -0.5245 0.7695 0.3644
vn 0.4378 0.8382 0.3253
vn 0.4118 0.8869 0.2095
vn 0.8156 0.5385 0.2115
vn 0.4783 0.8346 0.2731
vn 0.6861 0.6744 0.2729
vn 0.8511 0.3124 -0.4219
vn 0.4353 0.1604 -0.8859
vn 0.3018 0.1065 -0.9474
vn 0.1254 0.1815 -0.9754
vn -0.7087 0.2123 -0.6728
vn -0.7745 0.1834 -0.6054
vn -0.7766 0.1856 -0.6021
vn -0.7748 0.1837 -0.6050
vn -0.7768 0.1859 -0.6017
vn -0.7858 0.2928 0.5448
vn -0.8135 0.3166 0.4878
vn -0.7496 0.3637 0.5530
vn 0.0651 0.1885 0.9799
vn 0.5102 -0.0339 0.8594
vn 0.7757 0.0641 0.6279
vn 0.8542 0.2176 0.4722
vn 0.9993 -0.0073 0.0378
vn 0.9252 0.1162 -0.3611
vn -0.3820 -0.0189 -0.9240
vn -0.3967 -0.0842 -0.9141
vn -0.6032 -0.1507 -0.7832
vn -0.9994 -0.0334 -0.0120
vn -0.9998 -0.0129 -0.0168
vn -0.9578 -0.1001 0.2695
vn -0.2313 0.0660 0.9706
vn -0.2445 -0.1317 0.9607
vn -0.0058 -0.2286 0.9735
vn 0.7159 0.1146 0.6887
vn 0.6987 0.0074 0.7153
vn 0.8524 -0.1362 0.5049
vn 0.7929 -0.0378 -0.6082
vn 0.7861 -0.2118 -0.5807
vn 0.5496 -0.3372 -0.7644
vn 0.0835 -0.6940 -0.7151
vn -0.2638 -0.8556 -0.4453
vn -0.6478 -0.6195 -0.4433
vn -0.8164 -0.5645 -0.1220
vn -0.7783 -0.6261 0.0473
vn -0.8227 -0.4397 0.3604
vn -0.3880 -0.4029 0.8289
vn -0.2631 -0.4615 0.8472
vn 0.0015 -0.3373 0.9414
vn 0.3394 -0.7022 -0.6259
vn 0.4491 -0.8824 -0.1403
vn 0.1588 -0.9851 0.0656
vn 0.3199 -0.3653 0.8742
vn 0.5524 -0.7563 0.3506
vn 0.4352 -0.7894 0.4329
vn 0.3476 -0.7019 0.6217
vn 0.5206 -0.4351 0.7346
vn 0.4906 -0.8048 0.3340
vn 0.7521 -0.6016 0.2691
vn 0.7706 -0.3732 0.5167
vn -0.0738 0.3885 0.9185
vn -0.7027 -0.4959 0.5101
vn -0.2093 -0.8508 -0.4820
vn 0.7175 -0.1806 -0.6728
vn 0.7807 0.6003 0.1735
vn -0.7685 0.1504 0.6219
vn -0.7807 -0.6003 -0.1735
vn -0.0034 -0.3998 -0.9166
vn 0.6652 0.5233 -0.5326
vn 0.1762 0.8750 0.4508
vn -0.7685 0.5834 -0.2629
vn -0.7706 0.3732 -0.5167
vn -0.5313 0.4128 -0.7398
vn -0.3476 0.7019 -0.6217
vn -0.4906 0.8048 -0.3340
vn 0.9472 -0.1881 0.2596
vn 0.9712 0.1415 0.1917
vn 0.9345 -0.3544 -0.0337
vn 0.9506 -0.1275 -0.2829
vn 0.9733 0.1790 -0.1436
vn 0.2474 0.7085 0.6610
vn 0.1144 -0.4181 0.9012
vn 0.0706 -0.9914 -0.1103
vn 0.1771 -0.2110 -0.9613
vn 0.2546 0.8365 -0.4852
vn -0.2206 0.1462 0.9644
vn -0.2546 -0.8365 0.4852
vn -0.2886 -0.7428 -0.6041
vn -0.1654 0.4182 -0.8932
vn -0.1219 0.9865 0.1094
vn -0.9474 0.1096 0.3006
vn -0.9733 -0.1790 0.1436
vn -0.9685 -0.1659 -0.1856
vn -0.9472 0.1881 -0.2596
vn -0.9345 0.3544 0.0337
vn 0.2417 -0.1439 -0.9596
vn 0.4595 0.1020 -0.8823
vn -0.0633 -0.0048 -0.9980
vn -0.0340 0.3270 -0.9444
vn 0.2891 0.3930 -0.8729
vn 0.9962 -0.0845 -0.0205
vn 0.2444 -0.9405 -0.2361
vn -0.8074 -0.4609 -0.3685
vn -0.6906 0.6848 -0.2327
vn 0.4137 0.9103 0.0116
vn 0.6322 -0.7318 0.2545
vn -0.4137 -0.9103 -0.0116
vn -0.9987 0.0119 0.0493
vn -0.2520 0.9249 0.2847
vn 0.7906 0.4495 0.4159
vn 0.0316 -0.3508 0.9359
vn -0.2891 -0.3930 0.8729
vn -0.4739 -0.1202 0.8723
vn -0.2418 0.1439 0.9596
vn 0.0632 0.0048 0.9980
vn -0.2865 -0.2009 -0.9368
vn -0.0738 0.0544 -0.9958
vn -0.5737 -0.0715 -0.8159
vn -0.5386 0.2637 -0.8002
vn -0.2296 0.3415 -0.9114
vn 0.8424 -0.0632 -0.5351
vn 0.1353 -0.9482 -0.2875
vn -0.8551 -0.5020 0.1292
vn -0.7461 0.6524 0.1333
vn 0.3098 0.9182 -0.2467
vn 0.7102 -0.6992 -0.0821
vn -0.3098 -0.9182 0.2467
vn -0.8257 -0.0074 0.5641
vn -0.1156 0.9356 0.3335
vn 0.8661 0.4934 -0.0796
vn 0.5334 -0.2880 0.7953
vn 0.2296 -0.3415 0.9114
vn 0.0573 -0.0735 0.9956
vn 0.2865 0.2009 0.9368
vn 0.5737 0.0715 0.8159
vn 0.9388 -0.0084 -0.3444
vn 0.9999 0.0030 -0.0127
vn 0.8445 0.3000 -0.4437
vn 0.8473 0.5019 -0.1734
vn 0.9434 0.3184 0.0929
vn 0.4761 -0.7068 0.5232
vn 0.2193 -0.7646 -0.6060
vn -0.1059 0.2987 -0.9484
vn -0.0455 0.9986 -0.0259
vn 0.2829 0.3713 0.8844
vn -0.0061 -0.9994 -0.0327
vn -0.2829 -0.3713 -0.8844
vn -0.5103 0.6495 -0.5637
vn -0.2671 0.7458 0.6103
vn 0.0552 -0.3082 0.9497
vn -0.8436 -0.5150 0.1520
vn -0.9434 -0.3184 -0.0929
vn -0.9999 -0.0038 -0.0126
vn -0.9388 0.0084 0.3444
vn -0.8445 -0.3000 0.4437
vn 0.2571 -0.1571 -0.9535
vn 0.5457 -0.0261 -0.8376
vn 0.0371 0.0954 -0.9947
vn 0.1897 0.3824 -0.9043
vn 0.5040 0.3073 -0.8072
vn 0.8787 -0.4764 0.0295
vn -0.1253 -0.9389 -0.3206
vn -0.8838 -0.0682 -0.4628
vn -0.3379 0.9200 -0.1985
vn 0.7363 0.6633 0.1335
vn 0.2638 -0.9411 0.2115
vn -0.7363 -0.6633 -0.1335
vn -0.9125 0.4090 -0.0089
vn 0.1075 0.9241 0.3667
vn 0.8594 0.0611 0.5076
vn -0.2004 -0.4025 0.8932
vn -0.5040 -0.3073 0.8072
vn -0.5651 0.0160 0.8249
vn -0.2571 0.1571 0.9535
vn -0.0371 -0.0954 0.9947
s 1
f 1/1/1 14/2/1 13/3/1
f 2/4/2 14/2/3 16/5/3
f 1/1/4 13/3/4 18/6/4
f 1/1/5 18/6/5 20/7/5
f 1/1/6 20/7/6 17/8/6
f 2/4/7 16/5/7 23/9/7
f 3/10/8 15/11/8 25/12/8
f 4/13/9 19/14/9 27/15/9
f 5/16/10 21/17/10 29/18/10
f 6/19/11 22/20/11 31/21/11
f 2/4/12 23/9/12 26/22/12
f 3/10/13 25/12/14 28/23/15
f 4/24/16 27/25/16 30/26/16
f 5/27/17 29/28/17 32/29/17
f 6/19/18 31/21/18 24/30/18
f 7/31/19 33/32/19 38/33/19
f 8/34/20 34/35/20 40/36/20
f 9/37/21 35/38/21 41/39/21
f 10/40/22 36/41/22 42/42/22
f 11/43/23 37/44/23 39/45/23
f 39/45/24 42/42/24 12/46/24
f 39/45/25 37/44/25 42/42/25
f 37/44/26 10/40/26 42/42/26
f 42/42/27 41/39/27 12/46/27
f 42/42/28 36/41/28 41/39/28
f 36/41/29 9/37/29 41/39/29
f 41/39/30 40/36/30 12/46/30
f 41/39/31 35/38/31 40/36/31
f 35/38/32 8/34/32 40/36/32
f 40/36/33 38/33/33 12/46/33
f 40/36/34 34/35/34 38/33/34
f 34/35/35 7/31/35 38/33/35
f 38/33/36 39/45/36 12/46/36
f 38/33/37 33/32/37 39/45/37
f 33/32/38 11/43/38 39/45/38
f 24/47/39 37/44/39 11/43/39
f 24/47/40 31/48/40 37/44/40
f 31/48/41 10/40/41 37/44/41
f 32/29/42 36/41/42 10/40/42
f 32/29/43 29/28/44 36/41/45
f 29/28/44 9/37/46 36/41/45
f 30/26/47 35/38/47 9/37/47
f 30/26/48 27/25/48 35/38/48
f 27/25/49 8/34/49 35/38/49
f 28/49/50 34/35/50 8/34/50
f 28/23/15 25/12/14 34/50/51
f 25/51/52 7/52/52 34/53/52
f 26/54/53 33/32/53 7/31/53
f 26/55/54 23/56/54 33/57/54
f 23/58/55 11/43/55 33/32/55
f 31/48/56 32/29/56 10/40/56
f 31/21/57 22/20/57 32/59/57
f 22/20/58 5/60/58 32/59/58
f 29/61/59 30/62/59 9/63/59
f 29/64/60 21/65/60 30/66/60
f 21/67/61 4/68/61 30/69/61
f 27/25/62 28/49/62 8/34/62
f 27/15/63 19/14/63 28/23/63
f 19/14/64 3/10/64 28/23/64
f 25/70/65 26/54/65 7/31/65
f 25/71/66 15/72/66 26/73/66
f 15/11/67 2/4/67 26/22/67
f 23/58/68 24/47/68 11/43/68
f 23/9/69 16/5/69 24/30/69
f 16/5/70 6/19/70 24/30/70
f 17/8/71 22/20/71 6/19/71
f 17/8/72 20/7/72 22/20/72
f 20/7/73 5/60/73 22/20/73
f 20/7/74 21/74/74 5/60/74
f 20/7/75 18/6/75 21/74/75
f 18/6/76 4/13/76 21/74/76
f 18/6/77 19/14/77 4/13/77
f 18/6/78 13/3/78 19/14/78
f 13/3/79 3/10/79 19/14/79
f 16/5/80 17/8/80 6/19/80
f 16/5/3 14/2/3 17/8/81
f 14/2/82 1/1/82 17/8/82
f 13/3/83 15/11/83 3/10/83
f 13/3/84 14/2/84 15/11/84
f 14/2/85 2/4/85 15/11/85
f 43/75/86 44/76/86 45/77/86
f 44/76/87 43/75/87 48/78/87
f 43/79/88 45/80/88 46/81/88
f 43/82/89 46/83/89 47/84/89
f 43/75/90 47/85/90 48/78/90
f 44/76/91 48/78/91 53/86/91
f 45/87/92 44/88/92 49/89/92
f 46/81/93 45/80/93 50/90/93
f 47/84/94 46/83/94 51/91/94
f 48/92/95 47/93/95 52/94/95
f 44/88/96 53/95/96 49/89/96
f 45/80/97 49/96/97 50/90/97
f 46/97/98 50/98/98 51/99/98
f 47/84/99 51/91/99 52/100/99
f 48/92/100 52/94/100 53/101/100
f 49/89/101 53/95/101 54/102/101
f 50/98/102 49/103/102 54/104/102
f 51/99/103 50/98/103 54/104/103
f 52/105/104 51/99/104 54/104/104
f 53/101/105 52/94/105 54/106/105
f 55/107/106 56/108/106 57/109/106
f 56/108/107 55/107/107 60/110/107
f 55/111/108 57/112/108 58/113/108
f 55/114/109 58/115/109 59/116/109
f 55/107/110 59/117/110 60/110/110
f 56/108/111 60/110/111 65/118/111
f 57/119/112 56/120/112 61/121/112
f 58/113/113 57/112/113 62/122/113
f 59/116/114 58/115/114 63/123/114
f 60/124/115 59/125/115 64/126/115
f 56/120/116 65/127/116 61/121/116
f 57/112/117 61/128/117 62/122/117
f 58/129/118 62/130/118 63/131/118
f 59/116/119 63/123/119 64/132/119
f 60/124/120 64/126/120 65/133/120
f 61/121/121 65/127/121 66/134/121
f 62/130/122 61/135/122 66/136/122
f 63/131/123 62/130/123 66/136/123
f 64/137/124 63/131/124 66/136/124
f 65/133/125 64/126/125 66/138/125
f 67/139/126 68/140/126 69/141/126
f 68/140/127 67/139/127 72/142/127
f 67/143/128 69/144/128 70/145/128
f 67/146/129 70/147/129 71/148/129
f 67/139/130 71/149/130 72/142/130
f 68/140/131 72/142/131 77/150/131
f 69/151/132 68/152/132 73/153/132
f 70/145/133 69/144/133 74/154/133
f 71/148/134 70/147/134 75/155/134
f 72/156/135 71/157/135 76/158/135
f 68/152/136 77/159/136 73/153/136
f 69/144/137 73/160/137 74/154/137
f 70/161/138 74/162/138 75/163/138
f 71/148/139 75/155/139 76/164/139
f 72/156/140 76/158/140 77/165/140
f 73/153/141 77/159/141 78/166/141
f 74/162/142 73/167/142 78/168/142
f 75/163/143 74/162/143 78/168/143
f 76/169/144 75/163/144 78/168/144
f 77/165/145 76/158/145 78/170/145
f 79/171/146 80/172/146 81/173/146
f 80/172/147 79/171/147 84/174/147
f 79/175/148 81/176/148 82/177/148
f 79/178/149 82/179/149 83/180/149
f 79/171/150 83/181/150 84/174/150
f 80/172/151 84/174/151 89/182/151
f 81/183/152 80/184/152 85/185/152
f 82/177/153 81/176/153 86/186/153
f 83/180/154 82/179/154 87/187/154
f 84/188/155 83/189/155 88/190/155
f 80/184/156 89/191/156 85/185/156
f 81/176/157 85/192/157 86/186/157
f 82/193/158 86/194/158 87/195/158
f 83/180/159 87/187/159 88/196/159
f 84/188/160 88/190/160 89/197/160
f 85/185/161 89/191/161 90/198/161
f 86/194/162 85/199/162 90/200/162
f 87/195/163 86/194/163 90/200/163
f 88/201/164 87/195/164 90/200/164
f 89/197/165 88/190/165 90/202/165
f 91/203/166 92/204/166 93/205/166
f 92/204/167 91/203/167 96/206/167
f 91/207/168 93/208/168 94/209/168
f 91/210/169 94/211/169 95/212/169
f 91/203/170 95/213/170 96/206/170
f 92/204/171 96/206/171 101/214/171
f 93/215/172 92/216/172 97/217/172
f 94/209/173 93/208/173 98/218/173
f 95/212/174 94/211/174 99/219/174
f 96/220/175 95/221/175 100/222/175
f 92/216/176 101/223/176 97/217/176
f 93/208/177 97/224/177 98/218/177
f 94/225/178 98/226/178 99/227/178
f 95/212/179 99/219/179 100/228/179
f 96/220/180 100/222/180 101/229/180
f 97/217/181 101/223/181 102/230/181
f 98/226/182 97/231/182 102/232/182
f 99/227/183 98/226/183 102/232/183
f 100/233/184 99/227/184 102/232/184
f 101/229/185 100/222/185 102/234/185
f 103/235/186 104/236/186 105/237/186
f 104/236/187 103/235/187 108/238/187
f 103/239/188 105/240/188 106/241/188
f 103/242/189 106/243/189 107/244/189
f 103/235/190 107/245/190 108/238/190
f 104/236/191 108/238/191 113/246/191
f 105/247/192 104/248/192 109/249/192
f 106/241/193 105/240/193 110/250/193
f 107/244/194 106/243/194 111/251/194
f 108/252/195 107/253/195 112/254/195
f 104/248/196 113/255/196 109/249/196
f 105/240/197 109/256/197 110/250/197
f 106/257/198 110/258/198 111/259/198
f 107/244/199 111/251/199 112/260/199
f 108/252/200 112/254/200 113/261/200
f 109/249/201 113/255/201 114/262/201
f 110/258/202 109/263/202 114/264/202
f 111/259/203 110/258/203 114/264/203
f 112/265/204 111/259/204 114/264/204
f 113/261/205 112/254/205 114/266/205
