# Blender v2.93.5 OBJ File: ''
# www.blender.org
o Stone_5_Sphere.005
v 0.124057 2.900112 0.696021
v -0.988248 2.302204 1.402507
v -1.645852 0.378819 0.972540
v -1.515295 0.205328 1.013057
v -1.935192 0.502017 0.349113
v -1.148718 2.496428 -0.085068
v -2.050423 1.471546 -0.043435
v -2.053317 0.735749 0.066959
v -1.140445 -0.091788 -0.733655
v -0.178298 2.918502 -0.723521
v -0.890281 1.401778 -1.486513
v -0.766690 -0.090164 -1.083986
v -0.165805 2.473579 -1.187646
v -0.533415 0.003345 -1.477161
v -0.094444 2.977318 -0.706489
v 0.010692 2.812051 -1.031833
v 0.219307 -0.083217 -0.781624
v 0.134112 3.005669 -0.644875
v 0.615967 0.051418 -1.316236
v 1.067893 0.592064 -1.103633
v 1.342542 0.970302 -0.935001
v 0.308567 -0.082560 -0.180853
v 1.262258 1.866280 -0.719348
v 1.583807 1.257569 -0.708024
v 1.071512 0.070260 0.258785
v 0.306030 3.042727 0.244146
v 1.541555 1.019534 0.373297
v 1.335858 2.025298 0.555105
v 0.959186 2.533551 0.262009
v 1.458882 1.128821 0.924140
v 1.117223 0.066529 0.947887
v 0.435908 -0.075989 0.331218
v 0.172755 2.955622 0.539210
v 0.278385 2.619262 0.966876
v -0.581216 2.021145 1.554784
v -0.727550 0.016486 1.323259
v -0.710878 2.486168 1.223473
v -1.152845 2.310953 1.264841
v -1.332888 2.172675 1.239650
v -1.335160 0.019606 1.051748
v -1.458944 1.898241 1.180579
v -1.599785 2.193313 0.853010
v -1.756704 0.183485 0.543182
v -1.811949 2.169226 0.288586
v -0.312318 -0.053589 0.661632
v -2.042140 1.471720 -0.162445
v 0.079774 2.940219 0.124158
v -0.647547 2.726013 -0.388808
v -1.529150 -0.045986 -0.261794
v -1.905047 2.005154 0.194722
v -1.725904 0.056364 -0.100757
v -1.709558 1.518531 -0.556260
v -0.420378 2.081769 -1.336070
v -0.616546 1.783919 -1.432196
v -0.633605 1.053517 -1.584073
v 0.308124 -0.057883 -1.353431
v -0.078595 0.929625 -1.478220
v 0.510097 2.790437 -0.851789
v 0.136459 3.037899 -0.490755
v 0.438402 0.332232 -1.412889
v 0.506754 -0.045857 -0.679047
v 0.961131 2.067102 -0.906672
v 0.700976 0.091068 -1.204844
v 0.817023 0.292227 -1.243604
v 0.706329 2.451880 -0.905135
v 0.433174 2.967165 -0.543727
v 0.105893 -0.069282 -0.108191
v 0.537964 3.006640 0.068601
v 0.983032 2.281109 -0.719063
v 0.295336 3.066852 -0.169136
v 1.443541 0.821407 -0.186565
v 0.742163 2.676993 -0.392890
v 1.552174 1.480485 -0.311457
v 1.027669 0.007966 0.898772
v 1.445960 1.779361 0.149048
v 1.608483 1.205904 -0.102583
v 1.297356 0.418867 0.200584
v 0.325085 2.991354 0.350790
v 1.428410 1.601612 0.852424
v 1.416390 0.712820 0.833180
v 1.184658 0.068798 0.833625
v 0.347792 -0.057049 0.456378
v 1.167127 1.709358 1.146321
v 0.759867 1.949780 1.378408
v 0.787708 0.050312 1.147348
v 1.012005 0.455511 1.119738
v 0.212965 0.190193 1.426444
v 0.283062 0.078731 1.364468
v -0.091183 1.670228 1.715294
v 0.022482 2.816675 0.881747
v 0.508149 1.880865 1.500375
v 0.152614 1.519572 1.630169
v 1.168619 0.094196 0.540764
v 1.609918 1.221749 -0.517336
v 1.402881 1.391012 -0.840540
v 0.452688 3.031924 -0.248360
v 0.133687 2.046760 -1.211551
v 0.455889 1.293273 -1.263514
v -0.180075 -0.041603 -1.463138
v -0.165044 0.100724 -1.572234
v -0.515930 0.470628 -1.632516
v -0.654428 0.800465 -1.579797
v -1.126674 1.464811 -1.227157
v -1.016598 2.419412 -0.354411
v -1.551792 1.452834 1.070109
v -1.649151 0.027886 0.486341
v -0.298091 2.671853 1.033564
v -0.251125 0.100453 1.533538
v -0.121082 1.669017 1.717352
vt 0.959775 0.807766
vt 0.960636 0.806407
vt 0.960080 0.808442
vt 0.959287 0.800624
vt 0.959246 0.800111
vt 0.959534 0.799767
vt 0.960885 0.798895
vt 0.959391 0.798597
vt 0.961950 0.795898
vt 0.953335 0.803175
vt 0.953335 0.804363
vt 0.953046 0.803507
vt 0.954622 0.805160
vt 0.957315 0.805847
vt 0.957964 0.806172
vt 0.958652 0.804839
vt 0.955630 0.805290
vt 0.956632 0.803572
vt 0.958406 0.805431
vt 0.951131 0.796449
vt 0.952843 0.797815
vt 0.952289 0.799383
vt 0.962100 0.805280
vt 0.961946 0.805221
vt 0.962224 0.804344
vt 0.952440 0.795909
vt 0.952546 0.795675
vt 0.953305 0.796485
vt 0.961523 0.804988
vt 0.961254 0.803853
vt 0.961074 0.803188
vt 0.955110 0.801916
vt 0.955417 0.801062
vt 0.955179 0.802433
vt 0.952707 0.799334
vt 0.952690 0.800662
vt 0.960132 0.806338
vt 0.959975 0.806461
vt 0.960014 0.805625
vt 0.953873 0.802385
vt 0.953687 0.802620
vt 0.953534 0.802434
vt 0.952463 0.800913
vt 0.959968 0.807016
vt 0.951988 0.806282
vt 0.952197 0.809652
vt 0.950538 0.809427
vt 0.951901 0.803102
vt 0.950002 0.802346
vt 0.952961 0.802892
vt 0.950609 0.805555
vt 0.951157 0.805581
vt 0.953335 0.804173
vt 0.953450 0.803175
vt 0.953450 0.804471
vt 0.950708 0.803298
vt 0.952757 0.804779
vt 0.950809 0.803175
vt 0.953046 0.809650
vt 0.952064 0.809977
vt 0.950522 0.803857
vt 0.950294 0.803198
vt 0.959849 0.807333
vt 0.951111 0.800991
vt 0.949532 0.803175
vt 0.948686 0.804588
vt 0.960479 0.809302
vt 0.948711 0.805888
vt 0.950332 0.810487
vt 0.951069 0.810325
vt 0.958954 0.797823
vt 0.959246 0.798967
vt 0.959178 0.800042
vt 0.949122 0.806864
vt 0.949825 0.806391
vt 0.949363 0.808016
vt 0.958298 0.799398
vt 0.953340 0.798254
vt 0.953951 0.800915
vt 0.958023 0.801009
vt 0.958684 0.801738
vt 0.960340 0.804221
vt 0.959203 0.804943
vt 0.957261 0.800098
vt 0.957392 0.799073
vt 0.960670 0.805631
vt 0.955850 0.798905
vt 0.955857 0.797720
vt 0.956235 0.799148
vt 0.953885 0.796790
vt 0.953995 0.797121
vt 0.955767 0.799997
vt 0.960954 0.804663
vt 0.955033 0.796465
vt 0.955581 0.796759
vt 0.954938 0.802590
vt 0.960541 0.805211
vt 0.961319 0.805285
vt 0.954577 0.799526
vt 0.954577 0.801968
vt 0.955284 0.797358
vt 0.954273 0.797717
vt 0.954022 0.802748
vt 0.953995 0.800635
vt 0.958844 0.807873
vt 0.959203 0.809673
vt 0.958293 0.808693
vt 0.957867 0.809807
vt 0.958529 0.809827
vt 0.958300 0.810158
vt 0.958460 0.802951
vt 0.959096 0.803352
vt 0.958942 0.804058
vt 0.958302 0.807197
vt 0.959203 0.805299
vt 0.958167 0.807796
vt 0.951786 0.795656
vt 0.950247 0.797062
vt 0.954392 0.808806
vt 0.962401 0.806486
vt 0.949280 0.797968
vt 0.954837 0.809195
vt 0.955990 0.809592
vt 0.954523 0.803946
vt 0.960498 0.795892
vt 0.959545 0.796748
vt 0.960448 0.795656
vt 0.954582 0.803608
vt 0.962793 0.807659
vt 0.948686 0.799723
vt 0.948991 0.801298
vt 0.962918 0.798242
vt 0.962488 0.796580
vt 0.960060 0.799387
vt 0.961109 0.809951
vt 0.963141 0.797137
vt 0.963242 0.798457
vt 0.960690 0.809928
vt 0.963412 0.801270
vt 0.960461 0.802299
vt 0.951425 0.803473
vt 0.953046 0.803977
vt 0.952341 0.803698
vt 0.959251 0.797121
vt 0.962948 0.806906
vt 0.962371 0.803247
vt 0.962730 0.804090
vt 0.952387 0.805784
vt 0.957600 0.797606
vt 0.958223 0.796890
vt 0.952434 0.805774
vt 0.949484 0.809056
vt 0.959246 0.801702
vt 0.953995 0.801667
vt 0.956615 0.799168
vt 0.948864 0.803322
vt 0.957320 0.795818
vt 0.956890 0.798473
vt 0.958113 0.801914
vt 0.955939 0.795730
vt 0.963121 0.795805
vt 0.960448 0.802951
vt 0.954924 0.795656
vt 0.954734 0.802951
vt 0.963351 0.803935
vt 0.953995 0.806927
vt 0.963351 0.809143
vt 0.962314 0.809836
vt 0.948843 0.798250
vt 0.963396 0.797123
vt 0.963578 0.800144
vt 0.963578 0.798733
vt 0.959809 0.801425
vt 0.950091 0.810549
vn -0.3593 0.9250 0.1237
vn -0.3555 0.9276 0.1151
vn -0.3606 0.9246 0.1226
vn -0.5167 0.5538 0.6530
vn -0.9096 0.0615 0.4108
vn -0.9122 0.0658 0.4043
vn -0.9097 0.0670 0.4099
vn -0.8068 -0.5858 0.0771
vn -0.7486 -0.1634 -0.6426
vn -0.5909 0.5817 -0.5590
vn -0.5919 0.5805 -0.5592
vn -0.5854 0.5883 -0.5579
vn -0.5925 0.5739 -0.5654
vn -0.5902 0.5810 -0.5605
vn -0.5895 0.5833 -0.5589
vn 0.0007 -0.9998 0.0208
vn -0.4195 0.7474 -0.5152
vn 0.1541 -0.6113 -0.7763
vn 0.2135 0.8447 -0.4908
vn 0.3326 0.3319 -0.8827
vn 0.7952 -0.5191 -0.3133
vn -0.0558 -0.9981 0.0267
vn 0.3915 0.8544 0.3416
vn 0.4357 -0.8675 0.2399
vn -0.0038 -0.9885 0.1511
vn -0.0077 -0.9876 0.1570
vn -0.0019 -0.9889 0.1483
vn 0.2624 0.8868 0.3803
vn 0.3907 -0.1221 0.9124
vn 0.0498 -0.9689 0.2425
vn 0.4627 -0.1408 0.8753
vn -0.4398 0.8958 0.0639
vn -0.4403 0.8955 0.0652
vn -0.4404 0.8954 0.0654
vn -0.5874 0.8029 0.1018
vn 0.1158 0.5889 0.7999
vn 0.1117 0.5911 0.7989
vn 0.1102 0.5921 0.7983
vn 0.0479 -0.9603 0.2748
vn 0.2725 -0.3310 0.9034
vn 0.3901 0.7412 0.5463
vn 0.2876 0.8713 0.3977
vn 0.0018 -0.9998 0.0214
vn 0.0013 -0.9998 0.0211
vn 0.0016 -0.9998 0.0213
vn 0.4311 -0.0828 0.8985
vn 0.0348 -0.9913 0.1273
vn 0.0345 -0.9913 0.1269
vn 0.0341 -0.9914 0.1264
vn 0.0372 -0.9908 0.1302
vn 0.5611 0.6879 0.4603
vn 0.5616 0.6886 0.4587
vn 0.5609 0.6881 0.4603
vn -0.3559 0.9259 0.1264
vn 0.5660 0.6847 0.4591
vn 0.5664 0.6845 0.4590
vn 0.5125 -0.2272 0.8281
vn 0.9120 -0.0035 -0.4102
vn 0.7652 0.1445 0.6273
vn 0.7327 0.4909 0.4714
vn 0.9678 -0.0185 0.2510
vn -0.1135 -0.9911 0.0701
vn 0.1577 -0.9873 -0.0184
vn 0.1334 -0.9908 -0.0212
vn 0.1326 -0.9910 -0.0203
vn 0.1348 -0.9907 -0.0193
vn 0.3124 -0.9473 -0.0708
vn 0.8088 -0.5472 -0.2156
vn 0.8084 -0.5479 -0.2152
vn 0.8090 -0.5468 -0.2157
vn 0.7647 0.6341 -0.1145
vn 0.9218 -0.3842 -0.0514
vn -0.4397 0.8959 0.0637
vn 0.7100 0.3638 -0.6030
vn 0.5800 -0.7991 -0.1582
vn 0.8333 -0.5097 -0.2139
vn 0.8335 -0.5094 -0.2140
vn 0.8337 -0.5089 -0.2143
vn 0.6282 0.0836 -0.7735
vn 0.7205 0.6648 -0.1972
vn 0.7202 0.6661 -0.1938
vn 0.7209 0.6634 -0.2006
vn 0.6729 0.4533 -0.5846
vn 0.7600 -0.5149 -0.3967
vn 0.1383 0.9780 -0.1564
vn 0.3870 0.1347 -0.9122
vn 0.3880 0.1648 -0.9068
vn 0.1925 0.9599 -0.2037
vn -0.0617 -0.9980 0.0103
vn 0.3321 0.2236 -0.9163
vn 0.3009 -0.1346 -0.9441
vn 0.2841 0.1422 -0.9482
vn -0.3885 0.9149 0.1095
vn -0.0664 0.9769 -0.2033
vn -0.0034 -0.9912 -0.1321
vn 0.2368 0.0993 -0.9665
vn -0.0454 -0.6047 -0.7952
vn -0.5964 0.5714 -0.5638
vn -0.5974 0.5708 -0.5633
vn -0.5967 0.5712 -0.5637
vn 0.2124 0.1234 -0.9693
vn 0.2261 0.1841 -0.9566
vn 0.2244 0.1855 -0.9567
vn 0.2240 0.1858 -0.9567
vn 0.2266 0.1837 -0.9565
vn -0.3408 0.0122 -0.9401
vn -0.3343 0.0116 -0.9424
vn -0.3387 0.0120 -0.9408
vn -0.0925 0.2048 -0.9744
vn -0.3990 -0.8102 -0.4294
vn -0.5912 0.5742 -0.5664
vn -0.3320 0.0114 -0.9432
vn -0.5927 0.5730 -0.5660
vn -0.3519 0.9289 0.1153
vn -0.3514 0.9291 0.1152
vn -0.7452 -0.1944 -0.6379
vn -0.7450 -0.1950 -0.6379
vn -0.7450 -0.1952 -0.6379
vn -0.5189 0.8147 -0.2589
vn 0.0061 -0.9997 0.0237
vn -0.0492 -0.9972 0.0566
vn -0.0490 -0.9972 0.0564
vn -0.0492 -0.9972 0.0567
vn -0.6881 -0.5086 -0.5175
vn -0.6822 0.5197 -0.5143
vn -0.9549 0.2896 -0.0660
vn -0.5999 0.6257 -0.4986
vn -0.3549 0.9277 0.1158
vn -0.3590 0.9258 0.1186
vn -0.9976 -0.0065 -0.0694
vn -0.1561 -0.9851 0.0722
vn -0.9105 0.0652 0.4084
vn -0.9002 0.0649 0.4306
vn -0.8902 0.0741 0.4495
vn -0.3558 0.9260 0.1260
vn -0.7701 -0.4819 0.4180
vn -0.7921 0.2433 0.5598
vn -0.3868 -0.0765 0.9190
vn -0.3885 -0.0779 0.9182
vn -0.3879 -0.0780 0.9184
vn -0.7926 0.0140 0.6096
vn -0.3015 0.8584 0.4150
vn -0.3826 -0.0763 0.9208
vn -0.3823 -0.0746 0.9210
vn 0.1104 0.5917 0.7986
vn 0.1099 0.5918 0.7985
vn -0.5164 0.8505 0.0996
vn 0.0522 0.6549 0.7539
vn -0.0408 -0.9960 0.0799
vn 0.2012 0.9786 0.0426
vn 0.2122 0.9767 0.0308
vn 0.1920 0.9800 0.0522
vn -0.5849 0.6813 0.4401
vn -0.9051 0.0408 0.4233
vn -0.8907 0.3217 0.3211
vn -0.0496 -0.9971 0.0571
vn -0.9099 0.0650 0.4097
vn -0.5948 0.6653 -0.4512
vn -0.7455 -0.1938 -0.6377
vn 0.1744 0.1966 -0.9649
vn 0.3032 0.2640 -0.9156
vn 0.3032 0.2637 -0.9157
vn 0.3032 0.2638 -0.9157
vn 0.6546 0.3628 -0.6633
vn 0.7202 0.6662 -0.1936
vn 0.1072 0.5335 0.8390
vn 0.0928 0.5184 0.8501
vn 0.1110 0.5373 0.8360
vn 0.9571 0.2745 0.0932
vn 0.9265 -0.3763 0.0005
vn 0.9263 -0.3768 0.0008
vn 0.9285 -0.3714 -0.0021
vn 0.9287 -0.3708 -0.0024
vn 0.3087 -0.8424 0.4416
vn -0.0092 -0.9872 0.1593
vn 0.3686 -0.2638 0.8914
vn 0.2016 0.6141 0.7631
vn 0.3347 0.0092 0.9423
vn 0.2377 -0.1331 0.9622
vn 0.2445 -0.1350 0.9602
vn 0.2345 -0.1323 0.9631
vn 0.2476 -0.1358 0.9593
vn 0.0790 -0.3905 0.9172
vn 0.8135 -0.2868 0.5059
vn 0.7294 -0.2228 0.6468
vn 0.7217 -0.2174 0.6572
vn 0.2235 0.6156 0.7557
vn 0.3995 -0.1596 0.9027
vn 0.4893 0.7296 0.4778
vn 0.4596 -0.0756 0.8849
vn 0.4983 -0.0800 0.8633
vn 0.6334 0.5927 0.4975
vn 0.6071 -0.1779 0.7745
vn 0.9379 -0.3375 -0.0806
vn 0.3473 -0.9336 -0.0881
vn 0.3907 -0.9181 -0.0673
vn 0.3234 -0.9410 -0.0993
vn 0.9851 0.0586 0.1615
vn 0.8255 -0.5222 -0.2141
vn 0.8254 -0.5224 -0.2139
vn 0.8260 -0.5210 -0.2151
vn 0.5611 0.6878 0.4605
vn 0.9278 -0.3727 -0.0155
vn 0.9678 0.2374 0.0841
vn 0.8216 0.5583 -0.1154
vn 0.8295 0.5454 -0.1202
vn 0.9778 0.2092 0.0114
vn 0.9671 0.2464 0.0632
vn 0.8399 0.5229 -0.1457
vn 0.7221 -0.6646 -0.1922
vn 0.7941 0.5930 -0.1333
vn 0.9199 -0.3920 -0.0118
vn 0.8338 -0.5089 -0.2143
vn 0.7368 0.6602 -0.1456
vn 0.9577 0.2767 -0.0792
vn 0.8701 0.4561 -0.1870
vn 0.8280 0.5574 -0.0613
vn 0.3408 -0.9363 -0.0845
vn 0.3367 -0.9377 -0.0854
vn 0.3353 -0.9382 -0.0858
vn 0.8081 -0.5484 -0.2150
vn -0.8911 -0.4526 0.0338
vn -0.8928 -0.4494 0.0299
vn -0.8993 -0.4370 0.0145
vn 0.6678 0.4446 -0.5969
vn 0.7428 0.6326 -0.2193
vn 0.1357 -0.9906 -0.0195
vn 0.3424 -0.9358 -0.0842
vn 0.6739 0.4792 -0.5623
vn 0.4137 0.0773 -0.9071
vn 0.1884 0.9566 -0.2222
vn 0.3991 0.1157 -0.9096
vn 0.3906 0.1480 -0.9086
vn 0.3338 0.2062 -0.9198
vn 0.1368 -0.9903 -0.0226
vn 0.4021 -0.0602 -0.9136
vn 0.2573 0.8645 -0.4317
vn 0.2569 -0.4287 -0.8662
vn 0.3032 0.2635 -0.9158
vn 0.2608 0.1770 -0.9490
vn 0.2324 0.0623 -0.9706
vn 0.0106 0.8929 -0.4501
vn 0.0197 -0.9990 -0.0412
vn -0.1094 -0.9505 -0.2909
vn -0.1613 -0.3059 -0.9383
vn 0.2270 0.2125 -0.9504
vn -0.5836 0.5904 -0.5575
vn -0.7186 -0.1950 -0.6675
vn -0.5743 0.5032 -0.6457
vn 0.0133 -0.9999 0.0095
vn -0.7451 -0.1943 -0.6380
vn -0.7411 -0.2223 -0.6335
vn -0.6058 0.5864 -0.5377
vn -0.7553 -0.0923 -0.6488
vn -0.7331 -0.1922 -0.6524
vn -0.5883 0.6540 -0.4756
vn -0.5880 0.6544 -0.4755
vn -0.5895 0.6527 -0.4758
vn -0.5899 0.6523 -0.4759
vn -0.3904 0.9143 0.1077
vn -0.4513 -0.8922 0.0157
vn -0.6923 -0.6121 0.3822
vn -0.6997 -0.6041 0.3813
vn -0.6888 -0.6158 0.3825
vn -0.8905 -0.2810 0.3578
vn -0.3872 -0.1121 0.9151
vn -0.3979 -0.1832 0.8990
vn -0.4004 -0.2022 0.8938
vn -0.3594 0.9246 0.1259
vn -0.4278 0.0020 0.9038
vn -0.3846 -0.0579 0.9212
vn -0.3823 -0.0743 0.9211
vn 0.2249 0.9742 0.0172
vn 0.0421 0.4637 0.8850
vn 0.8250 -0.2965 0.4810
vn 0.4030 -0.9131 -0.0613
vn 0.8243 -0.5252 -0.2115
vn -0.8839 -0.4651 0.0495
vn -0.7021 -0.6016 0.3811
vn -0.3860 -0.1048 0.9165
s 1
f 90/1/1 47/2/2 107/3/3
f 2/4/4 38/5/4 39/6/4
f 105/7/5 42/8/6 8/9/7
f 43/10/8 51/11/8 106/12/8
f 46/13/9 103/14/9 11/15/9
f 53/16/10 52/17/11 104/18/12
f 52/17/13 54/19/14 103/14/15
f 12/20/16 17/21/16 67/22/16
f 10/23/17 15/24/17 16/25/17
f 99/26/18 100/27/18 56/28/18
f 16/25/19 18/29/19 58/30/19
f 16/25/20 58/30/20 65/31/20
f 64/32/21 20/33/21 63/34/21
f 22/35/22 32/36/22 67/22/22
f 26/37/23 78/38/23 68/39/23
f 81/40/24 31/41/24 74/42/24
f 74/42/25 82/43/26 32/36/27
f 78/38/28 26/37/28 33/44/28
f 92/45/29 87/46/29 86/47/29
f 88/48/30 36/49/30 85/50/30
f 84/51/31 91/52/31 92/45/31
f 26/37/32 47/2/33 33/44/34
f 33/53/35 47/54/35 1/55/35
f 91/52/36 90/56/37 35/57/38
f 88/48/39 108/58/39 36/49/39
f 87/46/40 108/59/40 88/60/40
f 34/61/41 1/62/41 90/56/41
f 78/38/42 33/44/42 1/63/42
f 67/22/43 82/43/44 45/64/45
f 84/51/46 92/45/46 86/47/46
f 82/43/47 36/49/48 45/64/49
f 82/43/47 85/50/50 36/49/48
f 78/65/51 34/61/52 29/66/53
f 47/2/2 37/67/54 107/3/3
f 29/66/53 84/51/55 28/68/56
f 31/69/57 86/47/57 85/70/57
f 79/71/58 30/72/58 80/73/58
f 79/74/59 83/75/59 30/76/59
f 79/74/60 28/68/60 83/75/60
f 27/77/61 79/71/61 80/73/61
f 32/36/62 82/43/62 67/22/62
f 74/42/63 32/36/63 61/78/63
f 61/78/64 32/36/65 22/35/66
f 61/78/67 25/79/67 74/42/67
f 63/34/68 77/80/69 93/81/70
f 72/82/71 68/39/71 29/83/71
f 71/84/72 76/85/72 77/80/72
f 70/86/73 47/2/33 26/37/32
f 95/87/74 23/88/74 24/89/74
f 19/90/75 63/91/75 25/79/75
f 21/92/76 71/84/77 20/33/78
f 95/87/79 24/89/79 21/92/79
f 66/93/80 72/82/81 58/30/82
f 65/94/83 69/95/83 23/88/83
f 64/32/84 63/34/84 19/96/84
f 70/86/85 96/97/85 59/98/85
f 98/99/86 21/92/86 60/100/86
f 98/99/87 62/101/87 95/87/87
f 59/98/88 66/93/88 18/29/88
f 67/22/89 17/21/89 22/35/89
f 97/102/90 65/94/90 62/101/90
f 100/103/91 60/100/91 19/96/91
f 98/99/92 60/100/92 57/104/92
f 59/98/93 47/2/93 70/86/93
f 59/98/94 18/29/94 15/24/94
f 99/26/95 56/28/95 12/20/95
f 57/105/96 60/106/96 101/107/96
f 14/108/97 100/109/97 99/110/97
f 10/111/98 16/112/99 13/113/100
f 55/114/101 57/105/101 101/107/101
f 55/114/102 97/115/103 57/105/104
f 53/16/105 97/115/103 55/114/102
f 11/15/106 55/114/107 102/116/108
f 11/15/109 54/19/109 55/114/109
f 14/117/110 12/20/110 9/118/110
f 10/111/98 13/113/100 104/18/111
f 102/116/108 55/114/107 101/107/112
f 53/16/113 54/19/14 52/17/13
f 15/24/114 47/2/2 59/98/115
f 51/119/116 102/116/117 14/108/118
f 15/24/119 10/23/119 48/120/119
f 67/22/43 45/64/45 9/118/120
f 49/121/121 9/118/122 45/64/123
f 49/122/124 51/119/124 9/123/124
f 46/13/125 50/124/125 52/17/125
f 7/125/126 50/126/126 46/127/126
f 104/18/127 50/124/127 44/128/127
f 47/2/2 48/120/128 6/129/129
f 47/2/2 15/24/114 48/120/128
f 7/125/130 46/127/130 8/9/130
f 106/130/131 49/121/131 40/131/131
f 42/8/6 50/126/132 8/9/7
f 3/132/133 8/9/133 5/133/133
f 41/134/134 42/8/134 105/7/134
f 47/2/2 6/129/129 38/135/135
f 3/132/136 43/136/136 4/137/136
f 39/6/137 42/8/137 41/134/137
f 41/134/138 3/132/139 4/137/140
f 41/134/141 105/7/141 3/132/141
f 2/138/142 37/67/142 38/135/142
f 108/139/143 109/140/144 41/134/138
f 35/57/38 107/141/145 2/142/146
f 90/1/147 1/63/147 47/2/147
f 2/142/148 107/141/148 37/143/148
f 45/64/149 36/49/149 40/131/149
f 108/139/143 41/134/138 4/137/140
f 68/39/150 70/86/151 26/37/152
f 39/6/153 38/5/153 42/8/153
f 3/132/154 105/7/154 8/9/154
f 50/126/155 42/8/155 44/144/155
f 40/131/156 49/121/121 45/64/123
f 8/9/7 50/126/132 7/125/157
f 48/120/158 10/23/158 104/145/158
f 51/119/116 11/15/159 102/116/117
f 54/19/160 53/16/160 55/114/160
f 97/146/161 13/147/162 65/31/163
f 95/87/164 62/101/164 23/88/164
f 66/93/80 96/97/165 72/82/81
f 35/57/166 89/148/167 91/52/168
f 75/149/169 28/150/169 79/71/169
f 77/80/170 27/77/171 80/73/172
f 93/81/173 77/80/170 80/73/172
f 74/42/174 31/41/174 85/50/174
f 74/42/25 85/50/175 82/43/26
f 84/51/55 29/66/53 34/61/52
f 85/70/176 87/46/176 88/60/176
f 34/61/177 91/52/177 84/51/177
f 92/45/178 91/52/178 89/148/178
f 108/59/179 92/45/180 109/151/181
f 87/46/182 92/45/180 108/59/179
f 92/45/183 89/148/183 109/151/183
f 31/69/184 80/152/185 30/76/186
f 34/61/187 90/56/187 91/52/187
f 85/70/188 86/47/188 87/46/188
f 34/61/189 78/65/189 1/62/189
f 83/75/190 84/51/190 86/47/190
f 30/76/191 83/75/191 86/47/191
f 83/75/192 28/68/192 84/51/192
f 31/69/193 30/76/193 86/47/193
f 93/81/194 80/73/194 81/153/194
f 74/42/195 93/154/196 81/40/197
f 27/77/198 76/85/198 79/71/198
f 21/92/199 94/155/200 71/84/201
f 29/66/53 68/156/202 78/65/51
f 77/80/203 76/85/203 27/77/203
f 75/149/204 79/71/204 76/85/204
f 69/95/205 28/150/205 75/149/205
f 69/95/206 29/157/206 28/150/206
f 73/158/207 76/85/207 94/155/207
f 73/158/208 75/149/208 76/85/208
f 69/95/209 75/149/209 73/158/209
f 25/159/210 63/34/210 93/81/210
f 69/95/211 72/160/211 29/157/211
f 71/84/212 94/155/212 76/85/212
f 77/80/213 20/33/78 71/84/77
f 96/97/214 68/39/214 72/82/214
f 24/89/215 73/158/215 94/155/215
f 24/89/216 23/88/216 73/158/216
f 73/158/217 23/88/217 69/95/217
f 61/78/218 19/90/219 25/79/220
f 63/34/68 20/33/221 77/80/69
f 51/161/222 5/133/223 8/9/224
f 62/101/225 65/94/225 23/88/225
f 69/162/226 58/30/226 72/82/226
f 22/35/66 17/21/227 61/78/64
f 61/78/218 56/28/228 19/90/219
f 65/94/229 58/163/229 69/95/229
f 60/100/230 20/33/230 64/32/230
f 59/98/231 96/97/231 66/93/231
f 60/100/232 21/92/232 20/33/232
f 98/99/233 95/87/233 21/92/233
f 98/99/234 97/102/234 62/101/234
f 17/21/227 56/28/235 61/78/64
f 60/100/236 64/32/236 19/96/236
f 18/29/237 66/93/237 58/30/237
f 56/164/238 100/103/238 19/96/238
f 13/147/162 16/25/239 65/31/163
f 57/104/240 97/102/240 98/99/240
f 100/109/241 101/107/241 60/106/241
f 15/24/242 18/29/242 16/25/242
f 17/21/243 12/20/243 56/28/243
f 14/117/244 99/26/244 12/20/244
f 14/108/245 101/107/245 100/109/245
f 53/165/246 13/147/246 97/146/246
f 104/18/12 13/113/247 53/16/10
f 14/108/248 102/116/248 101/107/248
f 103/14/249 54/19/249 11/15/249
f 67/22/250 9/118/250 12/20/250
f 51/119/116 46/13/251 11/15/159
f 9/123/252 51/119/252 14/108/252
f 50/124/253 104/18/253 52/17/253
f 46/13/254 52/17/254 103/14/254
f 51/119/255 8/166/255 46/13/255
f 6/129/256 48/120/257 104/145/258
f 6/129/256 104/145/258 44/167/259
f 42/168/260 6/129/260 44/167/260
f 49/121/261 106/130/261 51/169/261
f 106/170/262 4/137/263 43/136/264
f 43/136/265 3/132/265 5/133/265
f 36/171/266 4/137/267 40/172/268
f 38/135/135 6/129/129 42/168/269
f 41/134/270 2/4/270 39/6/270
f 35/173/271 2/4/271 41/134/271
f 109/140/144 35/173/272 41/134/138
f 90/56/37 107/141/145 35/57/38
f 47/2/2 38/135/135 37/67/54
f 68/39/150 96/97/273 70/86/151
f 35/57/166 109/151/274 89/148/167
f 31/69/184 81/174/275 80/152/185
f 74/42/195 25/79/276 93/154/196
f 21/92/199 24/89/277 94/155/200
f 51/161/222 43/136/278 5/133/223
f 106/170/262 40/172/279 4/137/263
f 36/171/266 108/139/280 4/137/267
