# Blender v2.93.5 OBJ File: ''
# www.blender.org
o Stone_11_Sphere.003
v -0.240168 1.397840 -1.259055
v 0.582698 0.520647 -1.011949
v -0.953307 1.008884 -0.628894
v -0.218353 0.044504 -0.760255
v -0.421511 -0.088712 -0.634776
v -0.899199 -0.014922 -0.291248
v -0.956081 -0.049916 -0.126293
v 0.835058 -0.045786 -0.435590
v 0.958922 0.080629 0.618136
v 0.994814 0.458587 0.922469
v -0.241417 0.967226 1.361230
v 0.966406 1.045749 1.127661
v -0.154119 1.297323 1.465618
v -0.408522 1.804659 1.331646
v -1.239249 1.314236 0.659202
v 1.239589 1.511297 0.064536
v -1.151726 2.246336 0.832845
v -0.080345 3.231082 0.884238
v 1.000262 2.666322 0.219452
v -0.374120 3.746435 -0.281448
v 1.251517 2.263465 -0.254338
v -0.382520 3.296663 -0.851627
v -1.223960 2.202339 -0.257653
v 0.999462 2.565069 -0.853994
v 1.273027 1.917789 -0.639006
v -1.123716 2.178229 -0.878144
v 0.335034 1.330162 -1.342504
v 1.064083 1.457304 -0.923859
v -0.013822 0.389602 -1.033454
v 1.094838 1.206371 -0.845899
v -0.881742 0.132000 -0.331129
v 0.900352 0.314871 -0.753385
v -0.776606 -0.013874 0.227419
v -0.513059 0.519217 1.049378
v -0.758954 0.514336 0.920898
v 1.080868 0.532284 0.797181
v -1.330828 1.273026 0.426972
v 0.826667 1.629563 1.337894
v 0.917786 2.836314 0.965299
v 0.893294 1.922521 1.249440
v 0.576784 3.407430 0.794120
v 0.126374 3.494851 0.779564
v -0.237931 3.776379 -0.168277
v -1.302639 2.244299 0.239920
v 1.135346 2.494737 0.250658
v 0.479989 3.686085 -0.223080
v 1.319177 2.035002 -0.316118
v -0.761118 3.517152 -0.469578
v 0.816462 3.178948 -0.577551
v 1.149699 2.391401 -0.330691
v -0.130470 3.028707 -1.159920
v -0.272069 2.728817 -1.219884
v -0.937942 2.885363 -0.651742
v -1.087086 2.133137 -0.921328
v 0.195019 2.606877 -1.283574
v -0.743883 2.128172 -1.158886
v 1.111395 2.266925 -0.813412
v 0.642489 3.473944 -0.490335
v -1.012203 2.984888 -0.047189
v 0.770188 3.121375 0.885965
v 1.024230 2.666725 0.665978
v -1.244662 2.445527 0.400677
v -0.389210 2.842904 1.013078
v -0.726595 2.410374 1.152987
v 0.366327 0.151678 0.980508
v 0.722167 0.092231 0.870700
v -1.272579 0.852485 0.119497
v -0.365901 0.094971 0.796117
v -0.672734 0.071369 0.656207
v -1.158014 0.364672 -0.145194
v -1.192089 1.003187 -0.376197
v 0.200126 0.770716 -1.320019
vt 0.954753 0.807898
vt 0.955322 0.807352
vt 0.955349 0.808595
vt 0.953462 0.806752
vt 0.953557 0.806328
vt 0.954819 0.806272
vt 0.964366 0.810234
vt 0.962703 0.810566
vt 0.964244 0.809414
vt 0.952241 0.802632
vt 0.952558 0.801521
vt 0.953285 0.802697
vt 0.953432 0.802056
vt 0.952910 0.801163
vt 0.953623 0.800837
vt 0.960745 0.807551
vt 0.962230 0.805754
vt 0.962808 0.805449
vt 0.962573 0.804809
vt 0.953924 0.799012
vt 0.954534 0.799931
vt 0.961052 0.806733
vt 0.961334 0.804940
vt 0.962088 0.805028
vt 0.954823 0.798475
vt 0.955275 0.798473
vt 0.959144 0.808103
vt 0.959714 0.807707
vt 0.960333 0.808210
vt 0.958244 0.809799
vt 0.958281 0.809261
vt 0.958734 0.808341
vt 0.957317 0.801144
vt 0.956786 0.800382
vt 0.957147 0.800353
vt 0.957662 0.805823
vt 0.960337 0.805993
vt 0.956837 0.807602
vt 0.957680 0.806250
vt 0.956875 0.805036
vt 0.956289 0.807563
vt 0.956176 0.805120
vt 0.955323 0.803903
vt 0.954354 0.803913
vt 0.955870 0.802596
vt 0.957523 0.803556
vt 0.957606 0.804640
vt 0.956528 0.803762
vt 0.955221 0.805376
vt 0.954828 0.805281
vt 0.955706 0.804775
vt 0.952661 0.808121
vt 0.952718 0.807579
vt 0.954278 0.803993
vt 0.956176 0.803941
vt 0.957961 0.803700
vt 0.958057 0.804412
vt 0.957825 0.804809
vt 0.958788 0.804957
vt 0.955865 0.807599
vt 0.955644 0.807736
vt 0.955639 0.806404
vt 0.957692 0.803479
vt 0.957474 0.802204
vt 0.957257 0.802145
vt 0.954827 0.802518
vt 0.954303 0.800393
vt 0.955231 0.801412
vt 0.955696 0.800144
vt 0.955579 0.801197
vt 0.958795 0.810661
vt 0.959034 0.810680
vt 0.960319 0.808948
vt 0.961091 0.804886
vt 0.960336 0.800133
vt 0.959317 0.800205
vt 0.958998 0.798473
vt 0.959996 0.800758
vt 0.959896 0.801109
vt 0.960782 0.808394
vt 0.960337 0.807909
vt 0.960407 0.801463
vt 0.960413 0.803782
vt 0.952500 0.800931
vt 0.953256 0.799356
vt 0.962351 0.809954
vt 0.964216 0.806273
vt 0.964217 0.808073
vt 0.964366 0.806646
vt 0.958634 0.802817
vt 0.959942 0.804527
vt 0.964130 0.808629
vt 0.952445 0.803515
vt 0.952681 0.804453
vt 0.953347 0.804562
vt 0.954147 0.804627
vt 0.954398 0.805376
vt 0.952158 0.802207
vt 0.952424 0.801337
vt 0.963514 0.805993
vt 0.958278 0.799776
vt 0.958237 0.810228
vt 0.955898 0.806386
vt 0.953925 0.809578
vt 0.954362 0.810230
vt 0.952158 0.809307
vt 0.955349 0.810003
vt 0.953921 0.810367
vt 0.952228 0.808821
vt 0.957237 0.804609
vt 0.956176 0.803387
vt 0.955639 0.805376
vt 0.955639 0.808379
vt 0.955349 0.807647
vt 0.959769 0.805179
vt 0.955898 0.805376
vt 0.960337 0.807275
vt 0.956176 0.799668
vt 0.955693 0.799001
vt 0.958637 0.799549
vt 0.952656 0.806779
vt 0.960413 0.800687
vt 0.958872 0.804809
vt 0.963459 0.810418
vn -0.1441 -0.0050 -0.9895
vn 0.5265 -0.1927 -0.8280
vn 0.5506 -0.1657 -0.8182
vn 0.1728 -0.6521 -0.7382
vn -0.5443 -0.3086 -0.7800
vn -0.5449 -0.3091 -0.7794
vn -0.5417 -0.3086 -0.7818
vn -0.9731 -0.1226 -0.1953
vn -0.0162 -0.9796 0.2004
vn -0.0162 -0.9795 0.2008
vn -0.0161 -0.9796 0.2003
vn -0.3173 -0.5312 0.7856
vn -0.8418 -0.3872 0.3761
vn -0.8427 -0.3830 0.3785
vn -0.8428 -0.3821 0.3790
vn -0.1444 -0.5049 0.8510
vn -0.5948 -0.0958 0.7981
vn -0.5947 -0.0952 0.7983
vn -0.5948 -0.0954 0.7982
vn 0.0308 0.2927 0.9557
vn 0.0231 0.2929 0.9559
vn 0.0291 0.2927 0.9558
vn 0.0326 0.3255 0.9450
vn 0.8816 0.4697 0.0474
vn -0.6181 0.6494 0.4429
vn -0.6070 0.6527 0.4534
vn -0.6128 0.6507 0.4484
vn 0.1771 0.9534 0.2443
vn 0.1388 0.9626 0.2326
vn 0.0825 0.7819 -0.6179
vn 0.0814 0.7839 -0.6155
vn 0.0812 0.7842 -0.6152
vn -0.9366 0.3087 -0.1659
vn -0.9398 0.2995 -0.1646
vn -0.9400 0.2973 -0.1674
vn 0.9260 0.3412 -0.1615
vn -0.5129 0.3946 -0.7623
vn 0.5018 0.0710 -0.8621
vn -0.4720 0.3789 -0.7960
vn -0.5446 0.3695 -0.7529
vn -0.5448 0.3699 -0.7526
vn -0.5450 0.3717 -0.7515
vn 0.9209 0.3052 -0.2424
vn -0.6073 0.6495 0.4575
vn -0.6084 0.6499 0.4556
vn 0.0900 0.9307 -0.3545
vn 0.8155 0.5743 0.0715
vn 0.8022 0.5919 -0.0779
vn 0.9610 0.2566 0.1036
vn 0.9147 0.4014 0.0472
vn 0.9162 0.3981 0.0448
vn 0.9163 0.3979 0.0446
vn -0.6183 0.6562 0.4325
vn -0.6111 0.6406 0.4650
vn -0.9877 -0.0014 -0.1561
vn -0.9670 0.0765 0.2432
vn -0.9649 0.0765 0.2511
vn -0.9651 0.0765 0.2506
vn -0.9313 0.0197 0.3638
vn -0.0036 0.2898 0.9571
vn 0.0335 0.2709 0.9620
vn 0.1392 -0.3319 0.9330
vn 0.2140 -0.2968 0.9306
vn 0.2177 -0.2847 0.9336
vn 0.2175 -0.2854 0.9334
vn 0.8521 -0.1355 0.5056
vn -0.4332 -0.3230 0.8414
vn -0.1643 -0.5470 0.8208
vn 0.6047 -0.5336 0.5913
vn 0.8523 -0.3748 0.3649
vn 0.9699 -0.2275 -0.0867
vn -0.9859 -0.0111 -0.1669
vn -0.9854 -0.0120 -0.1700
vn -0.9853 -0.0121 -0.1702
vn -0.8430 -0.3939 0.3663
vn -0.8427 -0.3950 0.3657
vn -0.8429 -0.3942 0.3662
vn 0.0188 -0.9952 0.0957
vn -0.3593 -0.8800 -0.3106
vn 0.9721 -0.2198 -0.0817
vn 0.9722 -0.2193 -0.0824
vn 0.9721 -0.2202 -0.0804
vn 0.1248 -0.7745 -0.6202
vn 0.1673 -0.6687 -0.7245
vn 0.1657 -0.6703 -0.7234
vn 0.1669 -0.6690 -0.7242
vn -0.6932 -0.2813 -0.6635
vn -0.6869 -0.2794 -0.6709
vn -0.6884 -0.2798 -0.6692
vn -0.5340 -0.2969 -0.7917
vn 0.9721 -0.2203 -0.0799
vn -0.5326 -0.2969 -0.7925
vn -0.5333 -0.2970 -0.7921
vn 0.5134 -0.1851 -0.8379
vn -0.5503 -0.2710 -0.7897
vn -0.5502 -0.2710 -0.7898
vn -0.5505 -0.2709 -0.7897
vn -0.7019 -0.2449 -0.6688
vn 0.5362 -0.2020 -0.8195
vn -0.5923 -0.1448 -0.7926
vn -0.8425 -0.3960 0.3652
vn 0.0224 -0.9929 0.1165
vn -0.0159 -0.9799 0.1987
vn -0.0297 -0.9162 0.3997
vn -0.5949 -0.0961 0.7980
vn 0.9628 0.0417 0.2669
vn 0.9629 0.0433 0.2664
vn 0.9629 0.0435 0.2663
vn 0.0359 0.2911 0.9560
vn 0.0356 0.2910 0.9561
vn 0.0360 0.2912 0.9560
vn -0.9647 0.0765 0.2521
vn 0.0365 0.2914 0.9559
vn 0.9515 0.0678 0.3000
vn 0.0572 0.2950 0.9538
vn 0.9701 0.0583 0.2354
vn 0.7905 0.6050 -0.0952
vn -0.1377 0.0295 -0.9900
vn -0.1400 0.0303 -0.9897
vn -0.1308 0.0270 -0.9910
vn -0.1284 0.0261 -0.9914
vn 0.4840 0.0905 -0.8704
vn 0.4014 0.4968 -0.7695
vn 0.4118 0.4903 -0.7682
vn 0.4333 0.4763 -0.7651
vn 0.9779 -0.1980 -0.0679
vn 0.4728 0.0923 -0.8763
vn -0.5321 0.3392 -0.7758
vn -0.1597 0.0252 -0.9868
vn -0.5483 0.3769 -0.7465
vn -0.5486 0.3763 -0.7466
vn -0.0727 0.2285 -0.9708
vn 0.8783 0.4074 -0.2503
vn 0.8781 0.4073 -0.2513
vn 0.8914 0.4166 -0.1782
vn 0.4127 0.4734 -0.7782
vn 0.9345 0.3341 -0.1232
vn -0.9380 0.3003 -0.1729
vn 0.0968 0.8074 -0.5820
vn -0.9362 0.3099 -0.1660
vn -0.1633 0.7758 -0.6095
vn 0.0826 0.7819 -0.6180
vn -0.9378 0.3005 -0.1736
vn 0.8664 0.4971 0.0470
vn 0.8330 0.5486 0.0710
vn 0.9145 0.4019 0.0476
vn -0.9382 0.3361 -0.0823
vn -0.5322 0.7165 0.4509
vn 0.9613 0.0507 0.2707
vn -0.6423 0.6342 0.4304
vn 0.8622 0.5044 -0.0467
vn 0.7888 0.6132 -0.0429
vn 0.0419 0.3400 0.9395
vn -0.6074 0.6302 0.4836
vn 0.9627 0.0403 0.2674
vn 0.0209 0.2929 0.9559
vn -0.5744 -0.0975 0.8127
vn -0.5953 -0.0869 0.7988
vn -0.5984 -0.0794 0.7972
vn -0.5985 -0.0792 0.7972
vn 0.8172 -0.0119 0.5762
vn 0.9629 0.0432 0.2664
vn -0.5951 -0.0874 0.7989
vn 0.2178 -0.2841 0.9337
vn 0.8357 -0.0404 -0.5477
vn 0.7840 0.0279 -0.6202
vn 0.8483 -0.0595 -0.5261
vn -0.3724 -0.5675 0.7343
vn -0.8241 -0.4042 0.3967
vn 0.2397 -0.3094 0.9202
vn 0.2411 -0.3096 0.9198
vn 0.2331 -0.3083 0.9223
vn 0.2415 -0.3097 0.9196
vn -0.8416 -0.3882 0.3756
vn 0.0362 -0.9961 0.0810
vn 0.0367 -0.9961 0.0802
vn 0.0351 -0.9959 0.0830
vn 0.0345 -0.9959 0.0840
vn -0.3314 -0.9068 0.2606
vn -0.9871 -0.0104 -0.1600
vn -0.6282 -0.1334 -0.7665
vn -0.8269 -0.4198 -0.3742
vn 0.9666 -0.2440 -0.0783
vn -0.5400 0.0312 -0.8411
vn 0.1654 -0.6706 -0.7232
vn 0.9722 -0.2203 -0.0796
vn -0.7041 -0.5895 0.3959
vn -0.6942 -0.2816 -0.6624
vn -0.8465 -0.2261 -0.4820
vn -0.5501 -0.2711 -0.7899
vn -0.9872 -0.0105 -0.1591
vn 0.3729 0.5142 -0.7724
vn 0.8068 0.3646 -0.4649
vn 0.7727 0.0413 -0.6335
s 1
f 27/1/1 72/2/1 1/3/1
f 28/4/2 30/5/2 2/6/2
f 27/1/3 2/6/3 72/2/3
f 72/7/4 32/8/4 29/9/4
f 4/10/5 31/11/6 3/12/7
f 71/13/8 70/14/8 67/15/8
f 66/16/9 68/17/10 69/18/11
f 69/18/12 68/17/12 35/19/12
f 67/15/13 35/20/14 15/21/15
f 65/22/16 11/23/16 34/24/16
f 11/25/17 13/26/18 15/21/19
f 18/27/20 63/28/21 14/29/22
f 60/30/23 41/31/23 42/32/23
f 61/33/24 60/34/24 39/35/24
f 18/27/25 20/36/26 17/37/27
f 42/32/28 41/31/28 46/38/28
f 46/38/29 43/39/29 42/32/29
f 22/40/30 58/41/31 51/42/32
f 53/43/33 26/44/34 59/45/35
f 50/46/36 57/47/36 49/48/36
f 51/49/37 52/50/37 22/51/37
f 24/52/38 57/53/38 27/1/38
f 54/54/39 26/44/39 53/43/39
f 48/55/40 22/51/41 53/43/42
f 57/47/43 47/56/43 25/57/43
f 20/36/26 48/58/44 59/59/45
f 46/38/46 20/36/46 43/39/46
f 60/30/47 58/41/47 41/31/47
f 21/60/48 50/61/48 19/62/48
f 47/56/49 21/63/49 45/64/49
f 19/65/50 49/48/51 60/34/52
f 20/36/26 59/59/45 17/37/27
f 18/27/53 42/32/53 43/39/53
f 17/37/54 63/28/54 18/27/54
f 23/66/55 37/67/55 44/68/55
f 17/69/56 62/70/57 37/67/58
f 15/21/59 17/69/59 37/67/59
f 40/71/60 60/30/60 38/72/60
f 13/73/61 38/72/61 14/29/61
f 13/74/62 11/23/62 65/22/62
f 65/75/63 12/76/64 13/77/65
f 10/78/66 36/79/66 12/76/66
f 34/24/67 11/23/67 35/19/67
f 68/17/68 65/22/68 34/24/68
f 9/80/69 10/81/69 66/16/69
f 36/79/70 10/78/70 9/82/70
f 8/83/71 36/79/71 9/82/71
f 23/66/72 67/15/73 37/67/74
f 7/84/75 69/85/76 70/14/77
f 8/86/78 7/87/78 5/88/78
f 6/89/79 5/88/79 7/87/79
f 16/90/80 36/79/81 32/91/82
f 4/92/83 8/86/83 5/88/83
f 32/8/84 8/86/85 29/9/86
f 31/11/87 70/14/88 71/13/89
f 3/12/7 29/93/90 4/10/5
f 25/57/91 16/90/80 32/91/82
f 72/94/92 29/93/90 1/95/93
f 28/4/94 2/6/94 27/1/94
f 56/96/95 3/12/96 54/54/97
f 71/13/98 26/44/98 3/12/98
f 2/6/99 30/5/99 32/97/99
f 31/11/100 5/98/100 6/99/100
f 70/14/77 69/85/76 67/15/101
f 7/87/102 8/86/102 9/80/102
f 33/100/103 66/16/9 69/18/11
f 68/17/104 66/16/104 65/22/104
f 35/20/105 11/25/17 15/21/19
f 40/101/106 12/76/107 16/90/108
f 38/72/109 60/30/110 18/27/111
f 37/67/58 62/70/57 44/68/112
f 14/29/113 38/72/109 18/27/111
f 39/35/114 40/101/114 61/33/114
f 60/30/115 40/71/115 39/102/115
f 61/33/116 16/90/116 45/64/116
f 45/103/117 21/60/117 19/62/117
f 55/104/118 27/1/119 1/3/120
f 55/104/118 1/3/120 52/105/121
f 27/1/122 57/53/122 28/4/122
f 55/104/123 58/106/124 24/52/125
f 25/57/126 47/56/126 16/90/126
f 55/104/127 24/52/127 27/1/127
f 54/54/128 52/50/128 56/96/128
f 52/105/129 1/3/129 56/107/129
f 53/43/42 52/50/130 54/54/131
f 52/105/132 51/108/132 55/104/132
f 50/46/133 47/56/134 57/47/135
f 58/106/136 49/109/136 24/52/136
f 53/43/42 22/51/41 52/50/130
f 49/48/137 57/47/137 24/110/137
f 23/66/138 59/45/35 26/44/34
f 20/36/139 46/38/139 58/41/139
f 48/55/140 53/43/33 59/45/35
f 20/36/141 22/40/141 48/58/141
f 20/36/142 58/41/31 22/40/30
f 44/68/143 59/45/35 23/66/138
f 60/34/144 49/48/144 58/111/144
f 41/112/145 58/113/145 46/114/145
f 19/65/50 50/46/146 49/48/51
f 44/68/147 62/70/147 59/45/147
f 18/27/148 43/39/148 20/36/148
f 45/64/149 16/90/149 47/56/149
f 62/115/150 17/37/150 59/59/150
f 61/33/151 19/65/151 60/34/151
f 61/116/152 45/103/152 19/62/152
f 18/27/153 60/30/153 42/32/153
f 17/37/154 64/117/154 63/28/154
f 40/101/106 16/90/108 61/33/155
f 14/29/22 63/28/21 64/117/156
f 17/69/157 15/21/157 64/118/157
f 15/21/158 14/119/159 64/118/160
f 38/120/161 12/76/161 40/101/161
f 36/79/162 16/90/108 12/76/107
f 13/26/163 14/119/159 15/21/158
f 13/77/65 12/76/64 38/120/164
f 28/4/165 25/121/166 30/5/167
f 35/19/168 68/17/168 34/24/168
f 67/15/169 15/21/169 37/67/169
f 66/122/170 12/76/171 65/75/172
f 66/122/170 10/78/173 12/76/171
f 67/15/13 69/85/174 35/20/14
f 7/87/175 9/80/176 66/16/177
f 7/87/175 66/16/177 33/100/178
f 7/87/179 33/100/179 69/18/179
f 23/66/72 71/13/180 67/15/73
f 31/11/181 6/99/181 70/14/181
f 6/99/182 7/84/182 70/14/182
f 32/91/183 36/79/183 8/83/183
f 31/11/184 4/10/184 5/98/184
f 4/92/185 29/9/86 8/86/85
f 25/57/91 32/91/82 30/123/186
f 72/7/187 2/124/187 32/8/187
f 3/12/188 31/11/87 71/13/89
f 1/95/93 29/93/90 3/12/7
f 26/44/189 54/54/189 3/12/189
f 56/96/95 1/95/190 3/12/96
f 26/44/191 71/13/180 23/66/72
f 55/104/123 51/108/192 58/106/124
f 50/46/133 21/63/193 47/56/134
f 28/4/165 57/53/194 25/121/166
