# Blender v2.93.5 OBJ File: ''
# www.blender.org
o Stone_1_Sphere.001
v -0.280159 1.643977 -1.701888
v 0.335460 2.991082 -0.985160
v -0.027762 0.883940 -1.554653
v 0.588043 0.666495 -1.004914
v 0.506310 3.261747 -0.362877
v 1.171758 1.870966 -0.594383
v 0.853581 0.841436 -0.982597
v 1.149645 0.530524 -0.178404
v 1.289160 0.532493 0.861223
v 0.445571 -0.106306 0.334600
v 0.606091 3.278227 0.241980
v 1.074130 2.915805 0.655073
v 0.333246 3.276030 0.728642
v 0.655808 1.844657 1.634844
v -0.332696 2.675657 1.487040
v -0.196234 0.065759 0.888863
v 0.071611 3.439232 0.105048
v -0.746283 -0.130447 0.429557
v -1.006738 3.063995 0.017849
v -1.017119 0.042932 0.303384
v -0.469045 3.354716 -0.151825
v -1.425935 1.845662 -0.850652
v -0.498166 1.831344 -1.612315
v -1.176259 0.369814 -0.976756
v -0.895594 -0.166281 -0.018981
v 0.669946 2.290403 -0.963294
v 0.886801 0.092041 0.310442
v 1.026162 3.041091 0.064062
v 1.454687 1.276529 1.112548
v 1.380789 2.056705 1.117511
v 1.168195 1.766206 1.418852
v 0.320996 0.397533 1.176836
v -0.363368 -0.152735 0.565202
v -0.361785 1.620221 1.285482
v -0.698841 0.054093 0.702121
v -1.095994 2.512345 1.160203
v -1.448000 1.447812 0.810325
v -1.569669 1.109028 0.327987
v -1.196060 2.538272 -0.377163
v -1.576470 1.297109 -0.352720
v -1.222104 0.116003 -0.573112
v -1.230194 1.460446 -1.303734
v -0.636437 -0.179711 0.213827
v -0.026988 3.136831 -0.744498
v 0.130545 3.298586 -0.522444
v 1.625952 1.287950 0.702121
v 1.369074 2.244179 -0.186351
v -0.627725 0.257187 -0.763396
v -0.025113 2.478459 -1.404058
v 1.037180 2.881996 -0.489432
vt 0.960955 0.808299
vt 0.960208 0.807933
vt 0.960788 0.807486
vt 0.961993 0.802145
vt 0.962380 0.803031
vt 0.961921 0.803142
vt 0.961259 0.806695
vt 0.960281 0.806997
vt 0.957149 0.802978
vt 0.958134 0.802971
vt 0.957233 0.803541
vt 0.956524 0.804852
vt 0.956222 0.805703
vt 0.955414 0.804990
vt 0.959774 0.808505
vt 0.959477 0.806276
vt 0.962148 0.809423
vt 0.962359 0.808417
vt 0.962638 0.808682
vt 0.958191 0.807920
vt 0.957922 0.806704
vt 0.958191 0.805703
vt 0.963639 0.808236
vt 0.962184 0.807331
vt 0.963793 0.806702
vt 0.963947 0.809463
vt 0.962404 0.810155
vt 0.964042 0.806281
vt 0.963266 0.806417
vt 0.963934 0.805730
vt 0.964042 0.808681
vt 0.956112 0.808854
vt 0.956020 0.810193
vt 0.955359 0.809808
vt 0.956619 0.807182
vt 0.955409 0.807105
vt 0.956178 0.805874
vt 0.960606 0.808684
vt 0.957486 0.807222
vt 0.956747 0.805703
vt 0.957786 0.806028
vt 0.956373 0.809735
vt 0.957922 0.809475
vt 0.956888 0.802460
vt 0.956709 0.802714
vt 0.956614 0.802111
vt 0.956358 0.802580
vt 0.959241 0.808508
vt 0.958867 0.807033
vt 0.955359 0.803859
vt 0.956669 0.803160
vt 0.957706 0.804230
vt 0.957613 0.805703
vt 0.960817 0.805518
vt 0.961738 0.805857
vt 0.958867 0.804218
vt 0.958809 0.804993
vt 0.958279 0.805553
vt 0.962466 0.802436
vt 0.961416 0.807483
vt 0.960430 0.802581
vt 0.961282 0.804695
vt 0.962460 0.804109
vt 0.960146 0.803316
vt 0.960206 0.804870
vt 0.960254 0.805211
vt 0.962038 0.805090
vt 0.960296 0.801680
vt 0.959753 0.802138
vt 0.961738 0.806821
vt 0.962551 0.805518
vt 0.961738 0.808161
vt 0.961157 0.809137
vt 0.959493 0.805518
vt 0.958935 0.804816
vt 0.958867 0.803566
vt 0.959495 0.803242
vt 0.962141 0.805518
vt 0.961027 0.801509
vt 0.959103 0.802585
vt 0.960601 0.809021
vt 0.961165 0.809777
vt 0.955823 0.807718
vt 0.956233 0.801509
vt 0.957922 0.807882
vt 0.955389 0.803051
vt 0.961496 0.805540
vt 0.958605 0.803187
vt 0.956929 0.801540
vn 0.3055 0.9491 -0.0763
vn 0.9187 0.0846 0.3857
vn 0.4433 0.8601 0.2524
vn 0.1865 -0.8562 0.4817
vn -0.3580 -0.1656 0.9189
vn -0.3373 0.8594 0.3842
vn -0.3380 0.8592 0.3841
vn -0.3393 0.8593 0.3826
vn -0.0768 0.3559 -0.9314
vn -0.5482 0.5911 -0.5916
vn -0.3240 -0.2829 -0.9027
vn -0.3246 -0.2844 -0.9021
vn -0.3253 -0.2863 -0.9012
vn -0.5043 0.5952 -0.6256
vn -0.5022 0.5971 -0.6255
vn -0.5042 0.5953 -0.6256
vn 0.0549 -0.8763 -0.4787
vn -0.5406 0.5112 -0.6682
vn -0.5054 0.6166 -0.6036
vn -0.9197 -0.1538 -0.3613
vn -0.0465 0.9738 -0.2226
vn -0.9590 -0.2753 -0.0665
vn -0.8739 -0.4568 0.1663
vn -0.9537 0.2931 0.0670
vn -0.9536 0.2934 0.0670
vn -0.9536 0.2933 0.0671
vn -0.1720 -0.9758 0.1352
vn -0.6038 -0.7531 0.2612
vn -0.3468 0.8552 0.3852
vn -0.3479 0.8546 0.3855
vn -0.3086 0.8805 0.3599
vn -0.7027 -0.4222 0.5727
vn -0.3523 -0.2592 0.8993
vn -0.3326 -0.2663 0.9047
vn -0.3305 -0.2662 0.9055
vn -0.3303 -0.2662 0.9056
vn -0.3329 -0.2663 0.9046
vn -0.2693 -0.2334 0.9343
vn 0.3480 0.5618 0.7506
vn 0.3485 0.5607 0.7511
vn 0.3521 0.5531 0.7550
vn -0.1154 -0.9795 0.1649
vn 0.2511 0.9570 0.1451
vn 0.3786 0.5398 0.7518
vn 0.3342 -0.3675 0.8679
vn 0.3137 -0.3648 0.8766
vn 0.7820 0.0701 0.6193
vn 0.2826 -0.8042 0.5229
vn 0.5297 0.8374 0.1345
vn 0.9572 0.2876 0.0327
vn 0.8972 -0.4252 -0.1196
vn 0.0836 -0.9852 -0.1498
vn 0.9119 -0.1353 -0.3876
vn 0.9118 -0.1353 -0.3876
vn 0.9117 -0.1354 -0.3880
vn 0.4628 -0.7690 -0.4410
vn 0.9016 0.4203 -0.1029
vn 0.1947 -0.8584 -0.4745
vn 0.5134 -0.7197 -0.4673
vn 0.4428 0.7714 -0.4571
vn 0.4305 -0.5635 -0.7051
vn 0.2729 0.8526 -0.4457
vn 0.5551 0.1239 -0.8225
vn 0.1757 -0.8322 -0.5260
vn 0.5310 0.8171 -0.2243
vn 0.3479 -0.8276 -0.4405
vn 0.9265 -0.0905 -0.3653
vn 0.7965 -0.5953 -0.1058
vn 0.9195 0.3929 0.0087
vn 0.5756 0.2505 -0.7784
vn 0.5745 0.2499 -0.7794
vn 0.5841 0.2548 -0.7707
vn -0.2482 -0.7815 0.5723
vn -0.6195 -0.5957 0.5112
vn -0.9536 0.2934 0.0671
vn 0.0639 -0.8053 -0.5894
vn -0.1817 0.6957 -0.6950
vn -0.3239 -0.2825 -0.9030
vn 0.1790 0.9635 -0.1991
vn -0.3853 -0.0072 -0.9228
vn 0.0319 -0.8477 -0.5294
vn -0.2121 0.8554 -0.4726
vn -0.9385 -0.2342 -0.2539
vn -0.9344 -0.0621 -0.3509
vn -0.5044 0.5951 -0.6256
vn -0.7619 -0.6355 0.1252
vn -0.5212 0.6246 -0.5815
vn -0.9553 0.2935 0.0345
vn -0.9679 0.2396 0.0759
vn -0.9537 0.2932 0.0673
vn -0.7724 -0.4115 0.4839
vn -0.3707 -0.1771 0.9117
vn -0.2127 -0.7554 0.6198
vn -0.2857 -0.1722 0.9427
vn 0.3478 0.5621 0.7504
vn 0.3233 -0.3527 0.8781
vn 0.4000 0.5024 0.7665
vn 0.2333 -0.8189 0.5244
vn 0.9334 0.3562 0.0428
vn 0.3966 -0.8361 0.3789
vn 0.8786 -0.3163 0.3578
vn 0.9151 -0.1332 -0.3805
vn 0.0647 -0.9976 0.0263
vn 0.4569 0.8840 -0.0995
vn 0.8197 0.1660 -0.5482
vn 0.1568 -0.8816 -0.4451
vn 0.6697 0.1643 -0.7242
vn 0.6381 0.0911 -0.7645
vn 0.5450 0.0186 -0.8382
vn 0.5754 0.0838 -0.8135
vn -0.0456 0.8226 -0.5668
vn 0.5656 0.2455 -0.7873
s 1
f 5/1/1 17/2/1 11/3/1
f 30/4/2 29/5/2 46/6/2
f 12/7/3 11/3/3 13/8/3
f 33/9/4 10/10/4 16/11/4
f 34/12/5 15/13/5 36/14/5
f 13/8/6 21/15/7 15/16/8
f 49/17/9 1/18/9 23/19/9
f 44/20/10 49/21/10 23/22/10
f 42/23/11 3/24/12 24/25/13
f 39/26/14 44/27/15 23/19/16
f 41/28/17 48/29/17 25/30/17
f 22/31/18 23/19/18 42/23/18
f 39/32/19 21/33/19 44/34/19
f 40/35/20 42/36/20 24/37/20
f 17/2/21 45/38/21 21/15/21
f 38/39/22 40/35/22 41/40/22
f 38/39/23 41/40/23 20/41/23
f 19/42/24 39/32/25 36/43/26
f 43/44/27 18/45/27 25/46/27
f 18/45/28 20/47/28 25/46/28
f 15/16/8 19/48/29 36/49/30
f 13/8/31 17/2/31 21/15/31
f 37/50/32 20/47/32 35/51/32
f 34/12/33 37/50/33 35/51/33
f 16/11/34 34/12/35 35/51/36
f 32/52/37 34/12/35 16/11/34
f 14/53/38 34/12/38 32/52/38
f 12/7/39 15/16/40 14/54/41
f 43/44/42 33/9/42 18/45/42
f 11/3/43 17/2/43 13/8/43
f 30/55/44 12/7/44 14/54/44
f 9/56/45 29/57/45 32/52/45
f 31/58/46 14/53/46 29/57/46
f 30/4/47 31/59/47 29/5/47
f 9/56/48 32/52/48 10/10/48
f 28/60/49 11/3/49 12/7/49
f 47/61/50 30/4/50 46/6/50
f 8/62/51 46/6/51 9/63/51
f 10/10/52 43/44/52 25/46/52
f 6/64/53 8/62/54 7/65/55
f 4/66/56 8/62/56 27/67/56
f 28/68/57 47/61/57 50/69/57
f 4/70/58 10/71/58 48/29/58
f 4/66/59 7/65/59 8/62/59
f 5/1/60 50/72/60 2/73/60
f 7/65/61 4/66/61 3/74/61
f 45/38/62 5/1/62 2/73/62
f 1/75/63 49/76/63 26/77/63
f 3/24/64 4/70/64 48/29/64
f 50/72/65 5/1/65 28/60/65
f 10/78/66 4/66/66 27/67/66
f 6/64/67 47/61/67 46/6/67
f 8/62/68 9/63/68 27/67/68
f 47/61/69 28/68/69 12/79/69
f 26/77/70 2/80/71 50/69/72
f 18/45/73 33/9/73 35/51/73
f 18/45/74 35/51/74 20/47/74
f 40/35/75 36/43/26 39/32/25
f 24/25/76 3/24/76 48/29/76
f 44/81/77 2/73/77 49/82/77
f 3/24/12 42/23/11 1/18/78
f 17/2/79 5/1/79 45/38/79
f 23/19/80 1/18/80 42/23/80
f 41/28/81 24/25/81 48/29/81
f 44/81/82 21/15/82 45/38/82
f 41/40/83 40/35/83 24/37/83
f 40/35/84 22/83/84 42/36/84
f 22/31/85 39/26/14 23/19/16
f 20/47/86 41/84/86 25/46/86
f 39/32/87 19/42/87 21/33/87
f 40/35/88 39/32/88 22/83/88
f 38/39/89 37/85/89 40/35/89
f 37/85/90 36/43/26 40/35/75
f 37/50/91 38/86/91 20/47/91
f 15/16/8 21/15/7 19/48/29
f 37/50/92 34/12/92 36/14/92
f 33/9/93 16/11/93 35/51/93
f 14/53/94 15/13/94 34/12/94
f 12/7/39 13/8/95 15/16/40
f 29/57/96 14/53/96 32/52/96
f 31/87/97 30/55/97 14/54/97
f 16/11/98 10/10/98 32/52/98
f 47/61/99 12/79/99 30/4/99
f 27/88/100 9/56/100 10/10/100
f 9/63/101 46/6/101 29/5/101
f 8/62/54 6/64/53 46/6/102
f 10/10/103 33/9/103 43/44/103
f 5/1/104 11/3/104 28/60/104
f 6/64/105 50/69/105 47/61/105
f 48/89/106 10/10/106 25/46/106
f 6/64/107 26/77/107 50/69/107
f 26/77/108 6/64/108 7/65/108
f 3/74/109 1/75/109 7/65/109
f 7/65/110 1/75/110 26/77/110
f 44/81/111 45/38/111 2/73/111
f 26/77/70 49/76/112 2/80/71
